<svg width="14" height="24" viewBox="0 0 14 24" fill="none" xmlns="http://www.w3.org/2000/svg">
<path d="M13.5 0H10.12C6.34 0 3.9 2.31832 3.9 5.90859V8.63969H0.5C0.223858 8.63969 0 8.85458 0 9.11967V13.0651C0 13.3302 0.223858 13.5451 0.5 13.5451H3.9V23.5192C3.89975 23.6516 3.95653 23.7783 4.05689 23.8692C4.15725 23.96 4.29227 24.0071 4.43 23.9991H8.84C8.97773 24.0071 9.11275 23.96 9.21311 23.8692C9.31347 23.7783 9.37025 23.6516 9.37 23.5192V13.5547H13.32C13.5961 13.5547 13.82 13.3398 13.82 13.0747V9.11967C13.8195 8.98903 13.7635 8.86423 13.665 8.77408C13.5638 8.68175 13.4296 8.63021 13.29 8.63009H9.34V6.32137C9.34 5.21261 9.625 4.64623 11.185 4.64623H13.5C13.7761 4.64623 14 4.43134 14 4.16625V0.479983C14 0.214896 13.7761 0 13.5 0Z" fill="#6C6C6C"/>
</svg>
