<svg width="74" height="64" viewBox="0 0 74 64" fill="none" xmlns="http://www.w3.org/2000/svg">
<path d="M21.6159 50.2266V58.0975L17.8672 58.0846C17.8672 55.5211 17.8672 52.9704 17.8672 50.4069L17.8415 49.3377C17.8415 47.7919 16.9011 46.6325 15.4712 46.5166C15.162 46.4908 14.84 46.5166 14.5437 46.6068C14.0542 46.7227 13.6162 46.9932 13.2813 47.3668C13.1653 47.5085 13.0751 47.6502 12.9979 47.8177C12.8175 48.217 12.7273 48.6421 12.7016 49.0801C12.6887 49.196 12.6887 49.3249 12.6887 49.4408C12.6887 49.6083 12.6887 49.7757 12.6887 49.9432C12.6887 52.6613 12.6887 55.3665 12.6887 58.0846H8.95293C8.95293 55.3665 8.95293 52.6613 8.96581 49.9432C8.96581 49.7757 8.96581 49.6083 8.95293 49.4408C8.95293 49.3249 8.94005 49.196 8.92717 49.0801C8.9014 48.6421 8.81123 48.217 8.63088 47.8177C8.55359 47.6502 8.46342 47.5085 8.34748 47.3668C8.02543 46.9804 7.57457 46.7227 7.08505 46.6068C6.77589 46.5166 6.46672 46.4908 6.14467 46.5166C4.71478 46.6325 3.7744 47.7919 3.7744 49.3377L3.74864 50.4069C3.74864 52.9704 3.74864 55.5211 3.74864 58.0846L0 58.0975V50.2266C0 49.853 9.78973e-08 49.4794 0.0257639 49.093C0.0257639 49.0157 0.0386456 48.9255 0.0386456 48.8482C0.180347 46.7871 0.991908 45.0352 2.79538 43.9531C4.35409 43.0256 6.40231 42.7293 8.15425 43.2704C9.27498 43.6182 10.0092 44.288 10.7693 45.1511L10.8079 45.2026L10.8466 45.1511C11.6066 44.288 12.3409 43.6182 13.4616 43.2704C15.2135 42.7293 17.2618 43.0127 18.8205 43.9531C20.6239 45.0352 21.4484 46.7871 21.5772 48.8482C21.5772 48.9255 21.5901 49.0157 21.5901 49.093C21.603 49.4794 21.6159 49.853 21.6159 50.2266Z" fill="#828282"/>
<path d="M12.7017 50.4069C12.7017 52.9704 12.7017 55.5211 12.7017 58.0717H12.6758C12.6758 55.3536 12.6758 52.6484 12.6758 49.9303C12.6758 49.7628 12.6758 49.5954 12.6758 49.4279C12.6758 49.2991 12.6888 49.1832 12.6888 49.0672L12.7017 49.0801V50.4069Z" fill="#828282"/>
<path d="M70.3353 47.2122V53.3054C70.3353 54.8899 71.4818 54.9156 73.6459 54.7997V58.2263C68.4674 58.806 66.5609 57.3245 66.5609 53.3054V47.2122H64.0103V43.5795H66.5609V41.8018L70.3353 38.0145V43.5795H73.6459V47.1993L70.3353 47.2122Z" fill="#828282"/>
<path d="M34.034 43.5667L30.8007 53.3698L27.0134 43.5667H22.9041L28.8813 57.6852C28.1856 59.669 27.0778 60.5064 25.0553 60.4806V63.9845C28.7911 64.1906 31.2387 62.3485 32.7587 58.149L38.0661 43.5667H34.034Z" fill="#828282"/>
<path d="M61.859 43.5667H58.0975V58.149H61.859V43.5667Z" fill="#828282"/>
<path d="M53.3312 45.4088C51.9657 43.9273 50.2653 43.1673 48.3072 43.1673C46.2719 43.1673 44.6874 43.8629 43.5796 45.2928V37.7311H43.4765L39.8181 41.3896V58.1619H43.5796V56.4357C44.6874 57.8656 46.259 58.5612 48.3072 58.5612C50.2524 58.5612 51.9528 57.8398 53.3312 56.3455C54.7353 54.8641 55.4309 53.022 55.4309 50.8578C55.4309 48.6936 54.7353 46.8902 53.3312 45.4088ZM50.51 53.8335C49.75 54.5936 48.7839 54.9671 47.6245 54.9671C46.4651 54.9671 45.499 54.5936 44.7389 53.8335C43.9789 53.0477 43.6053 52.0558 43.6053 50.8578C43.6053 49.6598 43.9789 48.6679 44.7389 47.9079C45.499 47.1221 46.4651 46.7485 47.6245 46.7485C48.7839 46.7485 49.75 47.1221 50.51 47.9079C51.2958 48.6679 51.6694 49.6598 51.6694 50.8578C51.6694 52.0558 51.2958 53.0477 50.51 53.8335Z" fill="#828282"/>
<path d="M59.9693 36.2513L57.1967 39.0168L59.9622 41.7894L62.7348 39.0239L59.9693 36.2513Z" fill="#828282"/>
<path d="M54.7481 17.9059L48.0367 24.6302H48.0238C41.8533 18.4469 31.8441 18.434 25.6737 24.6045C25.6608 24.6173 25.6608 24.6173 25.6479 24.6302H25.635L18.9106 17.9059L36.8294 0L54.7481 17.9059Z" fill="#828282"/>
<path d="M46.0529 26.614L36.8423 35.8246L27.6189 26.614C30.0536 24.1536 33.3771 22.7752 36.8294 22.7881C37.4478 22.7881 38.0661 22.8267 38.6715 22.9169C41.4669 23.3162 44.0562 24.6044 46.0529 26.614Z" fill="#828282"/>
</svg>
