<svg width="24" height="20" viewBox="0 0 24 20" fill="none" xmlns="http://www.w3.org/2000/svg">
<path d="M21.5376 4.77033C21.5376 4.98035 21.5376 5.19038 21.5376 5.4004C21.5376 11.8109 16.584 19.1999 7.5312 19.1999C4.86564 19.2071 2.25323 18.4587 0 17.0424C0.393742 17.0849 0.78955 17.1056 1.1856 17.1045C3.39989 17.1103 5.55251 16.3794 7.3008 15.0281C5.20838 15 3.36231 13.66 2.6976 11.6868C3.0043 11.7325 3.31388 11.7565 3.624 11.7584C4.06114 11.7586 4.49656 11.7041 4.92 11.5961C2.61764 11.1521 0.956232 9.14549 0.96 6.81329V6.75601C1.64486 7.12896 2.40704 7.33968 3.1872 7.37177C1.81883 6.48059 0.992733 4.96495 0.9888 3.33835C0.987327 2.47838 1.21951 1.634 1.6608 0.894428C4.17723 3.92817 7.86286 5.76679 11.8128 5.95888C11.7323 5.59349 11.6905 5.22074 11.688 4.8467C11.7147 2.84914 12.9553 1.06664 14.8259 0.338267C16.6966 -0.390104 18.8245 0.0807841 20.208 1.52927C21.3093 1.3204 22.3663 0.924826 23.3328 0.359821C22.9626 1.48324 22.1928 2.4337 21.168 3.03286C22.1445 2.92308 23.099 2.66889 24 2.27868C23.3253 3.24047 22.4929 4.08274 21.5376 4.77033Z" fill="#6C6C6C"/>
</svg>
