<svg width="14" height="14" viewBox="0 0 14 14" fill="rgba(0, 0, 0, 0.65)" xmlns="http://www.w3.org/2000/svg">
<path d="M7 1.6625C8.015 1.6625 8.8375 2.485 8.8375 3.5C8.8375 4.515 8.015 5.3375 7 5.3375C5.985 5.3375 5.1625 4.515 5.1625 3.5C5.1625 2.485 5.985 1.6625 7 1.6625ZM7 9.5375C9.59875 9.5375 12.3375 10.815 12.3375 11.375V12.3375H1.6625V11.375C1.6625 10.815 4.40125 9.5375 7 9.5375ZM7 0C5.06625 0 3.5 1.56625 3.5 3.5C3.5 5.43375 5.06625 7 7 7C8.93375 7 10.5 5.43375 10.5 3.5C10.5 1.56625 8.93375 0 7 0ZM7 7.875C4.66375 7.875 0 9.0475 0 11.375V14H14V11.375C14 9.0475 9.33625 7.875 7 7.875Z"/>
</svg>
