<svg width="24" height="24" viewBox="0 0 24 24" fill="none" xmlns="http://www.w3.org/2000/svg">
<path fill-rule="evenodd" clip-rule="evenodd" d="M19.5 9.75C19.5 14.818 20.7953 16.116 21.8383 17.159C23.2544 18.5751 22.246 21 20.2473 21H15C15 22.6568 13.6568 24 12 24C10.3432 24 9 22.6568 9 21H3.75224C1.7496 21 0.748026 18.5723 2.16126 17.159C3.20423 16.116 4.49999 14.818 4.49999 9.75C4.49999 6.02841 7.21082 2.94052 10.7654 2.35172C10.5982 2.10975 10.5 1.81641 10.5 1.5C10.5 0.671578 11.1716 0 12 0C12.8284 0 13.5 0.671578 13.5 1.5C13.5004 1.80433 13.4078 2.10151 13.2345 2.35172C16.7892 2.94052 19.5 6.02841 19.5 9.75ZM12.375 22.5C12.375 22.2929 12.2071 22.125 12 22.125C11.3797 22.125 10.875 21.6203 10.875 21H10.125C10.125 22.0339 10.9661 22.875 12 22.875C12.2071 22.875 12.375 22.7071 12.375 22.5Z" fill="black"/>
<mask id="mask0" mask-type="alpha" maskUnits="userSpaceOnUse" x="1" y="0" width="22" height="24">
<path fill-rule="evenodd" clip-rule="evenodd" d="M19.5 9.75C19.5 14.818 20.7953 16.116 21.8383 17.159C23.2544 18.5751 22.246 21 20.2473 21H15C15 22.6568 13.6568 24 12 24C10.3432 24 9 22.6568 9 21H3.75224C1.7496 21 0.748026 18.5723 2.16126 17.159C3.20423 16.116 4.49999 14.818 4.49999 9.75C4.49999 6.02841 7.21082 2.94052 10.7654 2.35172C10.5982 2.10975 10.5 1.81641 10.5 1.5C10.5 0.671578 11.1716 0 12 0C12.8284 0 13.5 0.671578 13.5 1.5C13.5004 1.80433 13.4078 2.10151 13.2345 2.35172C16.7892 2.94052 19.5 6.02841 19.5 9.75ZM12.375 22.5C12.375 22.2929 12.2071 22.125 12 22.125C11.3797 22.125 10.875 21.6203 10.875 21H10.125C10.125 22.0339 10.9661 22.875 12 22.875C12.2071 22.875 12.375 22.7071 12.375 22.5Z" fill="white"/>
</mask>
<g mask="url(#mask0)">
<rect width="24" height="24" fill="#383838"/>
</g>
</svg>
