<?xml version="1.0" standalone="no"?>
<!DOCTYPE svg PUBLIC "-//W3C//DTD SVG 20010904//EN"
 "http://www.w3.org/TR/2001/REC-SVG-20010904/DTD/svg10.dtd">
<svg version="1.0" xmlns="http://www.w3.org/2000/svg"
 width="432.000000pt" height="382.000000pt" viewBox="0 0 432.000000 382.000000"
 preserveAspectRatio="xMidYMid meet">
<metadata>
Created by potrace 1.15, written by Peter Selinger 2001-2017
</metadata>
<g transform="translate(0.000000,382.000000) scale(0.100000,-0.100000)"
fill="#24f281" stroke="none">
<path d="M2105 3760 c-328 -25 -613 -122 -884 -300 -563 -370 -880 -1008 -832
-1673 20 -281 72 -482 185 -712 297 -603 862 -984 1536 -1035 353 -26 712 47
1012 208 573 305 942 870 987 1511 15 203 -7 435 -59 633 -185 706 -797 1251
-1515 1351 -143 20 -305 27 -430 17z m1092 -1101 c41 -15 231 -207 244 -246 7
-24 7 -42 0 -66 -8 -23 -221 -242 -723 -744 -752 -750 -738 -737 -804 -713
-43 16 -841 817 -855 858 -7 23 -7 41 0 65 13 40 203 231 245 247 62 23 76 12
369 -278 l277 -277 573 572 c314 315 583 577 597 582 33 13 43 13 77 0z"/>
</g>
</svg>
