<svg width="32" height="32" viewBox="0 0 32 32" fill="none" xmlns="http://www.w3.org/2000/svg">
<circle cx="16" cy="16" r="16" fill="#D9D9D9"/>
<g style="mix-blend-mode:multiply" opacity="0.4">
<path d="M24.0157 19.5615C23.6374 19.3415 23.183 19.3803 22.8311 19.6337C22.6793 19.7431 22.5533 19.8892 22.4631 20.055C22.4074 20.1581 22.3733 20.2844 22.3395 20.3964C22.2858 20.5748 22.3175 20.6501 22.4745 20.4847C22.5905 20.3626 22.7413 20.27 22.9041 20.2316C23.0955 20.1866 23.3017 20.2295 23.4467 20.3682C23.7427 20.6508 23.5785 21.1717 23.2697 21.3699C23.0336 21.5216 22.7258 21.5297 22.4638 21.4315C21.9839 21.2513 21.6194 20.7378 21.315 20.3407C20.966 19.885 20.6461 19.4059 20.2819 18.9625C19.7363 18.298 18.9762 17.7201 18.0962 17.6997C17.5386 17.6866 16.8889 17.8837 16.4996 18.3096C16.1102 17.8837 15.4606 17.687 14.9029 17.6997C14.023 17.7201 13.2629 18.298 12.7172 18.9625C12.353 19.4059 12.0332 19.885 11.6841 20.3407C11.3802 20.7378 11.0156 21.2513 10.5354 21.4315C10.2734 21.5297 9.96561 21.5216 9.72945 21.3699C9.421 21.1717 9.25645 20.6508 9.55251 20.3682C9.69778 20.2295 9.90399 20.1866 10.0951 20.2316C10.2579 20.27 10.4087 20.3626 10.5247 20.4847C10.6817 20.6501 10.7133 20.5748 10.6596 20.3964C10.6259 20.2844 10.5922 20.1581 10.536 20.055C10.4462 19.8892 10.3202 19.7428 10.168 19.6337C9.81621 19.3803 9.36179 19.3419 8.98345 19.5615C8.66605 19.7459 8.44435 20.0778 8.34658 20.4375C8.21335 20.9271 8.26292 21.4473 8.55313 21.8651C8.8189 22.2477 9.20619 22.5345 9.6279 22.7133C10.9278 23.2648 12.4167 22.9635 13.6144 22.2906C14.1821 21.9717 14.7005 21.568 15.1756 21.1193C15.6376 20.6832 16.0011 20.1208 16.4992 19.7297C16.9974 20.1208 17.3609 20.6829 17.8229 21.1193C18.298 21.5677 18.8164 21.9717 19.3841 22.2906C20.5821 22.9635 22.0707 23.2652 23.3706 22.7133C23.7923 22.5345 24.1792 22.2477 24.4454 21.8651C24.7356 21.4473 24.7851 20.9271 24.6519 20.4375C24.5548 20.0782 24.3331 19.7459 24.0157 19.5615Z" fill="#868686"/>
<path d="M26.7842 10.3874C26.5343 9.76307 26.0527 9.41182 25.4196 9.27913C24.4061 9.06655 23.3685 8.97539 22.3344 9.00566C21.0197 9.04437 19.0791 9.11864 18.4364 10.5219C18.4291 10.5377 18.4219 10.5539 18.415 10.5701C18.2904 10.8608 18.235 11.1751 18.2271 11.4933C17.6635 11.3835 17.0556 11.3233 16.4418 11.3233C15.8617 11.3233 15.303 11.3747 14.7721 11.4708C14.7621 11.1607 14.706 10.8541 14.5845 10.5701C14.5776 10.5539 14.5704 10.5377 14.5631 10.5219C13.9201 9.11899 11.9799 9.04437 10.6651 9.00566C9.631 8.97539 8.59341 9.06655 7.57992 9.27913C6.94684 9.41182 6.46522 9.76307 6.21529 10.3874C5.93369 11.0907 6.00013 11.9005 6.02492 12.6438C6.06795 13.9348 6.30996 15.2744 7.42707 16.048C8.15448 16.552 9.04748 16.5974 9.89952 16.5478C10.9023 16.489 11.8556 16.3017 12.6928 15.7055C13.6213 15.0442 14.2099 14.026 14.5356 12.9321C14.591 12.9335 14.6475 12.9303 14.7043 12.9173C15.8014 12.666 17.2008 12.6752 18.2828 12.9416C18.3372 12.955 18.3913 12.9613 18.4446 12.9613C18.4546 12.9613 18.4639 12.9592 18.4736 12.9589C18.8009 14.0429 19.3872 15.0498 20.3081 15.7059C21.1453 16.3021 22.0986 16.4897 23.1014 16.5481C23.9531 16.5981 24.8461 16.5523 25.5738 16.0483C26.6906 15.2747 26.9329 13.9352 26.976 12.6442C26.9997 11.9005 27.0658 11.0907 26.7842 10.3874Z" fill="#868686"/>
</g>
</svg>
