<svg width="110" height="160" viewBox="0 0 110 160" fill="none" xmlns="http://www.w3.org/2000/svg">
<path d="M56.8886 144.33C56.8125 146.44 55.9267 148.441 54.4153 149.915C51.7747 152.763 50.0639 155.984 51.3842 158.441C52.7045 160.899 58.5808 160.154 60.8495 158.255C63.1182 156.356 62.7091 154.532 64.829 151.814C66.949 149.096 67.3023 147.643 66.5399 144.795C65.7774 141.947 60.366 142.84 56.8886 144.33Z" fill="#555B5E"/>
<path d="M37.0095 138.744C36.5926 140.739 35.4365 142.502 33.7738 143.678C30.9472 145.763 29.4223 147.848 29.8128 151.125C30.2033 154.401 35.4846 153.973 38.1438 152.651C40.803 151.329 40.2266 149.989 42.1047 147.904C43.9829 145.819 45.3404 145.632 45.7124 143.361C46.0843 141.09 45.5264 138.614 44.392 138.241C42.0636 136.867 39.1306 137.066 37.0095 138.744Z" fill="#555B5E"/>
<path d="M35.4841 77.6429C35.4841 77.6429 36.1164 130.33 36.8788 139.694C37.1206 141.965 42.6808 144.237 44.9495 140.96C47.2182 136.659 45.8421 92.5553 48.6687 84.4568C47.8504 78.6482 38.2549 76.6189 35.4841 77.6429Z" fill="#5F6568"/>
<path d="M35.9866 79.6531C38.1601 85.2069 42.1706 89.8463 47.3487 92.7969C54.1734 96.3342 55.1776 102.403 55.6797 107.691C56.1818 112.978 56.1818 144.59 56.6838 145.614C57.1859 146.638 61.4816 150.659 66.8 145.614C67.3021 130.944 67.5439 83.4324 66.5397 77.3632C65.5355 71.294 35.2241 76.8792 35.9866 79.6531Z" fill="#6D7377"/>
<path d="M36.8606 34.339C33.6745 41.8222 31.0696 49.5402 29.0689 57.4244C28.0461 59.1185 19.5849 56.7355 14.4896 54.7062C14.4896 54.7062 10.0824 56.7355 12.4627 62.1531C14.1549 63.5122 27.0419 67.9245 32.1186 68.2596C37.6752 60.8335 41.4888 52.2494 43.2762 43.1449C44.6709 34.6741 40.9331 31.956 36.8606 34.339Z" fill="#6D7377"/>
<path d="M56.1818 29.368C56.1818 29.368 68.3063 37.4479 69.5709 40.2218C71.159 45.4446 70.9825 51.046 69.0688 56.1582C66.8001 61.4641 68.3063 80.6771 67.5439 84.4564C66.7815 88.2356 56.6839 89.7623 50.3798 88.7569C44.0758 87.7516 35.5031 86.6904 35.5031 79.4483C35.5031 72.2062 35.7262 55.2459 35.2055 51.9321C34.706 46.464 35.089 40.951 36.3399 35.6048C36.9908 32.9984 44.5035 28.9026 56.1818 29.368Z" fill="#6D7377"/>
<path d="M14.2663 56.0653C13.0304 53.7687 11.5123 51.636 9.74751 49.7168C8.61316 49.7168 9.3012 54.2408 9.3012 54.2408C9.3012 54.2408 1.60248 49.9402 1.37933 50.8524C1.15618 51.7647 6.1213 55.153 6.1213 55.153C6.1213 55.153 -0.424475 53.5706 0.0218274 54.4828C0.46813 55.395 6.1213 57.4243 6.1213 57.4243C6.1213 57.4243 1.60248 56.7355 1.37933 57.8711C1.15618 59.0068 7.25565 59.2302 7.25565 59.2302C7.25565 59.2302 2.95999 60.8127 3.87119 61.4829C4.78239 62.1531 7.70195 61.0361 7.70195 61.0361C9.46862 61.7534 11.3947 61.9848 13.2807 61.7063C15.6238 61.0361 15.6238 58.0945 14.2663 56.0653Z" fill="#E0A082"/>
<path d="M69.5583 40.4998C73.0261 47.9829 76.1681 55.0278 78.3456 62.9119C79.4588 64.6061 88.6681 62.2231 94.2139 60.1938C94.2139 60.1938 99.0108 62.2231 96.42 67.6407C94.5782 68.9998 80.5518 73.4121 75.0263 73.7472C68.9784 66.3211 64.8276 57.737 62.8822 48.6325C61.3642 40.1617 65.1258 38.1168 69.5583 40.4998Z" fill="#6D7377"/>
<path d="M94.457 61.5531C95.8022 59.2565 97.4544 57.1238 99.3753 55.2046C100.61 55.2046 99.8611 59.7286 99.8611 59.7286C99.8611 59.7286 108.24 55.428 108.483 56.3402C108.726 57.2525 103.322 60.6408 103.322 60.6408C103.322 60.6408 110.447 59.0584 109.961 59.9706C109.475 60.8828 103.322 62.9121 103.322 62.9121C103.322 62.9121 108.24 62.2233 108.483 63.3589C108.726 64.4946 102.087 64.718 102.087 64.718C102.087 64.718 106.763 66.3005 105.771 66.9707C104.779 67.6409 101.602 66.5239 101.602 66.5239C99.6789 67.2412 97.5825 67.4726 95.5297 67.1941C92.9794 66.5239 92.9794 63.5823 94.457 61.5531Z" fill="#E0A082"/>
<path d="M42.9781 31.1179C42.9781 31.1179 41.1185 49.4931 46.1394 62.1714C46.1394 62.1714 57.297 37.5036 60.3839 32.2908C58.2482 30.3527 55.7781 28.8197 53.0943 27.7668C50.6024 27.0407 42.9781 31.1179 42.9781 31.1179Z" fill="#CDD8E7"/>
<path d="M47.1622 37.001L45.8047 39.3654L47.8316 41.4133L49.6912 39.1978L48.6871 37.1685L47.1622 37.001Z" fill="#0083FF"/>
<path d="M46.8649 40.2775L44.1499 55.1713C44.1499 55.1713 44.7264 60.4399 46.1397 62.1341C47.8877 60.775 50.7701 52.8255 50.7701 52.8255L48.2224 39.9424L46.8649 40.2775Z" fill="#0083FF"/>
<path d="M46.1394 62.1716C46.1394 62.1716 57.297 36.1075 60.3839 32.291C61.6112 34.674 61.6112 48.0784 61.6112 48.0784L53.6522 50.9641L55.177 54.3524L46.1394 62.1716Z" fill="#555A5D"/>
<path d="M42.9787 31.1182C40.3961 36.0006 38.6189 41.269 37.7161 46.7194L41.4353 49.1024L39.9104 52.1556C39.9104 52.1556 42.4952 59.4536 46.1214 62.1717C44.5036 55.8977 42.1233 37.2246 42.9787 31.1182Z" fill="#555A5D"/>
<path d="M46.5302 67.0118C46.5302 67.4334 46.1889 67.7751 45.7678 67.7751C45.3467 67.7751 45.0054 67.4334 45.0054 67.0118C45.0054 66.5903 45.3467 66.2485 45.7678 66.2485C46.1889 66.2485 46.5302 66.5903 46.5302 67.0118Z" fill="#555B5E"/>
<path d="M46.0283 77.1027C46.0283 77.5242 45.6869 77.866 45.2659 77.866C44.8448 77.866 44.5034 77.5242 44.5034 77.1027C44.5034 76.6811 44.8448 76.3394 45.2659 76.3394C45.6869 76.3394 46.0283 76.6811 46.0283 77.1027Z" fill="#555B5E"/>
<path d="M45.8422 28.102C45.8653 28.225 45.8653 28.3513 45.8422 28.4743C45.7492 29.3493 45.3773 31.5834 45.3401 32.5143C45.3029 33.4451 46.3443 34.9159 48.7431 34.7856C51.142 34.6552 55.1773 33.5382 56.4419 30.6153C56.2998 27.7981 56.3432 24.9746 56.572 22.1631L45.8422 28.102Z" fill="#E0A082"/>
<path d="M59.7146 21.7163C57.855 27.3015 52.7225 29.2935 49.8774 30.243C47.13 31.2818 44.0374 30.7706 41.7695 28.9026C39.9099 27.0408 38.1805 18.4769 39.3149 11.0859C40.4492 3.69485 46.121 -0.680196 52.7597 0.660244C59.3985 2.00068 64.8285 6.17094 59.7146 21.7163Z" fill="#F5B697"/>
<path d="M55.0099 9.39171C50.5553 13.1605 44.6118 14.6583 38.9058 13.4503C38.9058 13.4503 38.2178 -5.16695 57.7249 1.40493C60.4015 2.64168 62.3862 5.01098 63.1363 7.8651C64.1591 12.4449 61.2767 21.2695 58.8221 23.6339C58.4191 22.3133 58.1634 20.9522 58.0596 19.5753C59.5005 18.4116 60.2098 16.5653 59.9192 14.7349C59.3242 11.7561 57.4646 13.804 57.3716 16.0008C57.1148 16.3994 56.9145 16.8317 56.7765 17.2854L56.4418 15.07C56.4418 15.07 54.0801 13.6364 55.0099 9.39171Z" fill="#555A5D"/>
<path d="M37.772 84.7544C37.772 84.7544 45.0058 91.1029 66.9304 87.6959C66.9304 87.0257 67.1536 85.4432 67.1536 85.4432C67.1536 85.4432 49.0783 89.5576 37.772 84.7544Z" fill="#5F6568"/>
</svg>
