<svg width="24" height="24" viewBox="0 0 24 24" fill="none" xmlns="http://www.w3.org/2000/svg">
<path d="M16.5676 12.3404C16.3026 11.5818 15.8479 10.9131 15.2546 10.3951L15.026 10.2055L15.0138 10.1933C14.9385 10.1301 14.8631 10.079 14.7853 10.028L14.7731 10.0158C14.6977 9.96474 14.6223 9.91368 14.5324 9.86505C14.5202 9.86505 14.5202 9.85289 14.5081 9.85289C14.4327 9.80182 14.3427 9.76535 14.2673 9.72644C14.2552 9.72644 14.2552 9.71429 14.243 9.71429C14.1676 9.67538 14.0777 9.63891 13.9901 9.6C13.978 9.6 13.978 9.58784 13.9658 9.58784C13.8904 9.56353 13.815 9.52462 13.7372 9.5003C13.5354 9.42492 13.3214 9.3617 13.105 9.3228C12.9397 9.63891 12.7135 9.91611 12.4606 10.1568C12.8521 10.1812 13.2315 10.2833 13.5719 10.4219C13.7737 10.5094 13.9755 10.6116 14.153 10.7258C14.1652 10.7258 14.1774 10.738 14.1774 10.738C14.2284 10.7623 14.2649 10.8012 14.316 10.8401C14.3403 10.8523 14.3549 10.8644 14.3792 10.8912C14.4181 10.9155 14.4667 10.9544 14.5056 10.9933C14.5299 11.0176 14.5567 11.0322 14.581 11.0565C14.6199 11.0954 14.6564 11.1198 14.6953 11.1587L14.7707 11.234L14.8728 11.3362L14.9482 11.4115C14.9725 11.4505 15.0114 11.4869 15.0357 11.5137C15.06 11.538 15.0868 11.5769 15.1111 11.6012L15.1865 11.7155C15.2108 11.7544 15.2375 11.7787 15.2497 11.8176L15.3251 11.9319C15.3494 11.9708 15.364 12.0073 15.3883 12.034C15.4126 12.0729 15.4272 12.1094 15.4515 12.1483C15.4758 12.1872 15.4904 12.2237 15.5147 12.2626C15.5269 12.3015 15.5536 12.338 15.5658 12.3769C15.5901 12.428 15.6047 12.479 15.629 12.5155C15.7312 12.7684 15.8065 13.0334 15.843 13.3228L15.9573 13.7653C16.0084 13.955 16.4631 15.572 17.5233 16.1143C18.7366 16.7465 20.3391 17.5295 20.9713 17.831L12.6527 22.8012V19.3897C12.6527 18.8474 13.7275 18.2152 14.2187 18.0012L14.243 17.9891C14.3451 17.938 14.4448 17.8869 14.547 17.8237L14.5859 17.7994C14.7998 17.6729 15.0017 17.5222 15.1913 17.3568C15.2035 17.3447 15.2302 17.3325 15.2424 17.3058C15.2667 17.2936 15.2813 17.2669 15.3056 17.2547C15.3688 17.2036 15.4199 17.1404 15.4831 17.0894L15.5074 17.065C15.5707 17.0018 15.6339 16.9386 15.685 16.8632C15.6971 16.8389 15.7239 16.8243 15.736 16.8C15.7871 16.7489 15.8236 16.6857 15.8746 16.6225C15.8868 16.6103 15.8989 16.5836 15.9135 16.5714L16.0643 16.3429C16.0643 16.3307 16.0764 16.3307 16.0764 16.3185C16.1397 16.2164 16.2029 16.1046 16.2661 16.0024C16.0132 15.6985 15.8236 15.3702 15.6728 15.0687C15.6096 15.2584 15.522 15.448 15.4321 15.6109C15.3932 15.6863 15.3445 15.7617 15.3056 15.8395C15.2935 15.8517 15.2935 15.8638 15.2813 15.8638C15.2424 15.9271 15.1938 15.9903 15.1549 16.0413C15.1427 16.0535 15.1305 16.0802 15.116 16.0924C15.0771 16.1556 15.0284 16.2067 14.9774 16.2578C14.9652 16.2699 14.9652 16.2821 14.953 16.2821C14.6491 16.6225 14.2843 16.9143 13.8661 17.1161L13.7907 17.155C13.5767 17.2426 11.719 18.0888 11.719 19.3654V22.7769L3.381 17.8116C3.92325 17.4833 5.49164 16.5495 6.77796 16.1435C7.28374 15.9781 8.35608 16.6614 8.96398 17.155L9.00289 17.1939C9.07827 17.2693 9.16824 17.3447 9.25577 17.4079L9.28009 17.4322C9.46976 17.583 9.67158 17.7362 9.90015 17.848L10.0509 17.9234C10.0631 17.9234 10.0752 17.9356 10.0752 17.9356C10.2138 18.0109 10.3524 18.0742 10.5056 18.1374C10.5299 18.1495 10.5445 18.1495 10.5688 18.1617C10.581 18.1617 10.5932 18.1739 10.6199 18.1739C10.8339 18.2492 11.0503 18.3125 11.2643 18.3635C11.4296 18.0474 11.6679 17.7702 11.9208 17.5295C11.5536 17.5052 11.2132 17.4274 10.885 17.3009C10.8728 17.2888 10.846 17.2888 10.8339 17.2766C10.795 17.2644 10.7585 17.2523 10.7196 17.2255C10.7074 17.2134 10.6807 17.2134 10.6685 17.2012C10.6296 17.1891 10.5932 17.1623 10.5664 17.1502C10.3135 17.0237 10.0874 16.8851 9.87097 16.7076L9.5427 16.4036C9.53055 16.3915 9.1269 16.0243 8.5579 15.696C7.73602 15.2292 7.04301 15.076 6.51049 15.2413C5.4114 15.5939 4.16155 16.265 3.40289 16.7076L11.7287 1.75562V8.31125C11.7287 8.53982 11.3883 9.14529 10.2381 9.66322L10.1628 9.70213C10.0485 9.75319 9.94878 9.81641 9.8345 9.87964L9.81018 9.89179C9.5962 10.0182 9.39438 10.169 9.19012 10.3343C9.06368 10.4365 8.94939 10.5483 8.8497 10.6626L8.83754 10.6748C8.72325 10.7891 8.62356 10.9033 8.53359 11.0274L8.52143 11.0395C8.47036 11.1027 8.43389 11.166 8.38283 11.2292C8.38283 11.2413 8.37067 11.2413 8.37067 11.2535C8.33176 11.3167 8.29529 11.3678 8.25638 11.431C8.25638 11.4432 8.24422 11.4432 8.24422 11.4553L8.12994 11.645C8.11778 11.6571 8.11778 11.6693 8.10562 11.696C8.06672 11.7593 8.0424 11.8225 8.01808 11.8736C8.01808 11.8857 8.00593 11.8979 8.00593 11.8979C7.98161 11.9611 7.95486 12.0122 7.93055 12.0754C7.91839 12.0997 7.91839 12.1143 7.90623 12.1386L7.83085 12.3283C7.81869 12.3526 7.81869 12.3672 7.80653 12.3915C7.79438 12.4426 7.78222 12.479 7.75547 12.5301C7.74331 12.5544 7.74331 12.5812 7.73115 12.6055C7.719 12.6687 7.69225 12.7319 7.68009 12.783C7.66793 12.8073 7.66793 12.8462 7.65577 12.8705C7.64362 12.9094 7.64362 12.9581 7.63146 12.997C7.6193 13.0359 7.6193 13.0723 7.60714 13.1112C7.59498 13.1623 7.59498 13.2134 7.58283 13.262C7.58283 13.3009 7.57067 13.3252 7.57067 13.3641C7.57067 13.4152 7.55851 13.4517 7.55851 13.5027C7.55851 13.5538 7.55851 13.5903 7.54635 13.6413V13.831C7.54635 14.0596 7.55851 14.2979 7.59742 14.5143C7.92568 14.5897 8.26611 14.7283 8.63328 14.9058C8.53115 14.5775 8.48252 14.2371 8.46793 13.8821V13.8188C8.46793 13.7313 8.46793 13.6535 8.48009 13.566V13.5027C8.48009 13.4274 8.49225 13.3641 8.50441 13.2888V13.2644C8.51656 13.1891 8.52872 13.1137 8.54331 13.0237C8.54331 12.9994 8.55547 12.9848 8.55547 12.9605C8.56763 12.8973 8.59438 12.834 8.60653 12.7708C8.60653 12.7587 8.61869 12.7465 8.61869 12.7319L8.69407 12.5033C8.70623 12.4912 8.70623 12.4644 8.71839 12.4523C8.7427 12.3891 8.76945 12.3258 8.79377 12.2748C8.80593 12.2626 8.80593 12.2505 8.81808 12.2237C8.85699 12.1483 8.88131 12.0851 8.93237 12.0219C8.94453 12.0097 8.94453 11.9976 8.95669 11.983C8.99559 11.9198 9.01991 11.8687 9.05881 11.8055C9.07097 11.7933 9.07097 11.7812 9.08313 11.7666C9.12204 11.7033 9.17067 11.6401 9.22173 11.5769C9.22173 11.5769 9.22173 11.5647 9.23389 11.5647C9.28495 11.5015 9.32143 11.4505 9.37249 11.3872C9.38465 11.3751 9.38465 11.3629 9.39681 11.3483C9.62538 11.0954 9.87583 10.8815 10.1676 10.6918L10.5591 10.5021C10.7731 10.4146 12.6187 9.54164 12.6187 8.26748V1.75076L21.0199 16.834C20.2758 16.4669 18.9482 15.8103 17.9245 15.2802C17.3312 14.9763 16.9397 13.904 16.8254 13.5125L16.7111 13.0578C16.7062 12.8219 16.643 12.5812 16.5676 12.3404ZM22.2527 17.0894L12.9932 0.479027C12.8278 0.177508 12.5263 0 12.1834 0C11.843 0 11.5391 0.177508 11.3761 0.479027L2.11656 17.0894C1.87583 17.5198 2.01444 18.0742 2.44483 18.3271L11.7166 23.8711C11.8673 23.9587 12.0327 23.9976 12.1956 23.9976C12.3585 23.9976 12.5239 23.9587 12.6746 23.8711L21.9342 18.3392C22.3524 18.0766 22.5032 17.5198 22.2527 17.0894Z" fill="#6C6C6C"/>
</svg>
