<svg width="148" height="32" viewBox="0 0 148 32" fill="none"
	xmlns="http://www.w3.org/2000/svg">
	<path d="M32.012 15.998l-5.999 6.005a14.12 14.12 0 0 0-19.97-.024l-.023.024h-.017L0 15.998 16.009 0l16.003 15.998z" fill="#fff"></path>
	<path d="M24.242 23.772L16.015 32l-8.237-8.23a11.53 11.53 0 0 1 8.228-3.417c.551 0 1.101.039 1.647.115 2.5.349 4.815 1.51 6.59 3.304z" fill="#24F281"></path>
	<path d="M61.598 15.307v7.033l-3.35-.01v-6.86l-.026-.966c0-1.379-.84-2.422-2.116-2.524a2.301 2.301 0 0 0-.827.083c-.44.103-.835.345-1.128.688-.103.123-.19.258-.258.403a3.162 3.162 0 0 0-.264 1.125 6.253 6.253 0 0 0-.016.326v7.723h-3.337v-7.27-.45c0-.108-.009-.216-.019-.323a3.141 3.141 0 0 0-.261-1.127 1.911 1.911 0 0 0-.258-.407 2.128 2.128 0 0 0-1.123-.682 2.273 2.273 0 0 0-.834-.083c-1.277.1-2.115 1.142-2.116 2.524l-.026.965v6.857l-3.349.01v-7.034c0-.335 0-.671.024-1.01 0-.074.008-.146.012-.219.121-1.842.852-3.408 2.466-4.373 1.397-.834 3.222-1.095 4.788-.61 1 .31 1.655.91 2.334 1.679l.037.044.036-.044c.68-.768 1.334-1.368 2.335-1.678 1.56-.486 3.39-.225 4.788.61 1.611.964 2.345 2.531 2.468 4.372 0 .073.008.146.01.22.01.338.01.675.01 1.008zM105.119 12.613v5.441c0 1.41 1.021 1.436 2.956 1.334v3.053c-4.627.524-6.329-.805-6.329-4.391v-5.437h-2.273v-3.24h2.274V7.776l3.372-3.381v4.974h2.956v3.24l-2.956.005zM72.686 9.36l-2.896 8.756-3.384-8.756h-3.669l5.343 12.61c-.625 1.774-1.61 2.526-3.415 2.501v3.125c3.338.18 5.517-1.459 6.878-5.212L76.284 9.36l-3.598.001zM94.187 9.36h3.36v13.027h-3.36z" fill="#fff"></path>
	<path fill-rule="evenodd" clip-rule="evenodd" d="M85.445 8.993c1.753 0 3.263.679 4.488 2.007 1.25 1.326 1.875 2.948 1.875 4.876 0 1.928-.625 3.57-1.875 4.9a5.905 5.905 0 0 1-4.49 1.977c-1.82 0-3.227-.625-4.218-1.9v1.541h-3.361V7.413l3.268-3.269h.093v6.75c.987-1.276 2.398-1.9 4.22-1.9zM84.83 19.55c1.04.002 1.9-.337 2.579-1.017.703-.707 1.035-1.585 1.035-2.656 0-1.07-.332-1.954-1.035-2.634-.68-.698-1.54-1.036-2.58-1.036s-1.9.334-2.578 1.036c-.679.677-1.017 1.564-1.017 2.634 0 1.068.338 1.953 1.017 2.656.678.68 1.543 1.017 2.578 1.017z" fill="#fff"></path>
	<path fill="#fff" d="M93.378 5.29l2.476-2.47 2.473 2.479-2.476 2.47z"></path>
</svg>