<svg width="148" height="32" viewBox="0 0 148 32" fill="none" xmlns="http://www.w3.org/2000/svg">
<path d="M32.0124 15.9979L26.0132 22.0027C23.3683 19.3511 19.7783 17.859 16.0331 17.8546C12.288 17.8502 8.69448 19.3339 6.04336 21.9792L6.01992 22.0027H6.00337L0 15.9979L16.009 0L32.0124 15.9979Z" fill="white"/>
<path d="M24.2424 23.7721L16.0145 32L7.77832 23.7693C9.95247 21.5742 12.9167 20.3435 16.0062 20.3532C16.5571 20.3534 17.1073 20.3916 17.6529 20.4677C20.1523 20.8168 22.4677 21.9778 24.2424 23.7721Z" fill="#24F281"/>
<path d="M61.5981 15.3068V22.3403L58.2482 22.3293V15.4695L58.222 14.5041C58.222 13.125 57.3821 12.0823 56.1064 11.9803C55.8279 11.9574 55.5475 11.9854 55.279 12.063C54.8393 12.1665 54.4441 12.4076 54.1508 12.7512C54.0479 12.8738 53.9612 13.0091 53.8929 13.1539C53.7367 13.5097 53.6474 13.8912 53.6295 14.2793C53.6212 14.3869 53.6157 14.4958 53.613 14.6048V22.3279H50.2755C50.2755 19.9043 50.2755 17.4812 50.2755 15.0585C50.2755 14.911 50.2755 14.7606 50.2755 14.6089C50.2755 14.5 50.2672 14.3924 50.2575 14.2848C50.2407 13.8963 50.1518 13.5142 49.9955 13.1581C49.927 13.0121 49.8404 12.8754 49.7376 12.7512C49.4448 12.411 49.0518 12.172 48.615 12.0686C48.3444 11.9895 48.0615 11.9614 47.7806 11.9858C46.5035 12.0865 45.6664 13.1277 45.665 14.5096L45.6388 15.475V22.3321L42.2903 22.3417V15.3081C42.2903 14.973 42.2903 14.6365 42.3137 14.2986C42.3137 14.2241 42.322 14.1524 42.3261 14.0793C42.4475 12.2368 43.1784 10.6715 44.792 9.7061C46.1891 8.87173 48.0137 8.61107 49.5804 9.09653C50.5803 9.40683 51.2353 10.0068 51.9139 10.7749L51.9511 10.8191L51.987 10.7749C52.6669 10.0068 53.3206 9.40683 54.3218 9.09653C55.8816 8.61107 57.7118 8.87173 59.1102 9.7061C60.721 10.6715 61.4547 12.2382 61.5775 14.0793C61.5775 14.1524 61.5857 14.2255 61.5885 14.2986C61.5982 14.6365 61.5981 14.9744 61.5981 15.3068Z" fill="white"/>
<path d="M105.119 12.6134V18.0541C105.119 19.4649 106.14 19.4897 108.075 19.3877V22.4411C103.448 22.9651 101.746 21.6357 101.746 18.0499V12.6134H99.4731V9.37379H101.747V7.77537L105.119 4.39374V9.36827H108.075V12.6079L105.119 12.6134Z" fill="white"/>
<path d="M72.6864 9.35996L69.7902 18.1161L66.4058 9.35996H62.7373L68.0801 21.9708C67.4553 23.7443 66.4692 24.4959 64.6653 24.4711V27.5962C68.0028 27.7769 70.1819 26.1371 71.5431 22.3845L76.2845 9.35858L72.6864 9.35996Z" fill="white"/>
<rect x="94.187" y="9.35999" width="3.35957" height="13.0273" fill="white"/>
<path fill-rule="evenodd" clip-rule="evenodd" d="M85.4449 8.99314C87.1977 8.99314 88.7079 9.67167 89.9326 10.9998C91.1834 12.3265 91.8082 13.9484 91.8082 15.8764C91.8082 17.8044 91.1834 19.4456 89.9326 20.7751C88.7938 22.0541 87.1559 22.7758 85.4435 22.7528C83.623 22.7528 82.2163 22.128 81.2247 20.8537V22.3942H77.8638V7.41265L81.1323 4.1441H81.2247V10.8936C82.2122 9.61788 83.623 8.99314 85.4449 8.99314ZM84.8295 19.5489C85.8694 19.5508 86.7291 19.212 87.4085 18.5325C88.1119 17.825 88.4443 16.9465 88.4443 15.8763C88.4443 14.8061 88.1119 13.9221 87.4085 13.2422C86.7286 12.5443 85.8694 12.2064 84.8295 12.2064C83.7897 12.2064 82.9291 12.5402 82.2506 13.2422C81.572 13.9193 81.2341 14.8061 81.2341 15.8763C81.2332 16.9437 81.572 17.8291 82.2506 18.5325C82.9291 19.2124 83.7938 19.5489 84.8295 19.5489Z" fill="white"/>
<rect x="93.3784" y="5.28937" width="3.49748" height="3.50162" transform="rotate(-44.93 93.3784 5.28937)" fill="white"/>
<path d="M133.072 14.64H124.648V18H129.136C128.536 19.608 127.072 20.592 124.84 20.592C121.576 20.592 119.56 18.504 119.56 15.648C119.56 12.696 121.672 10.608 124.504 10.608C126.4 10.608 127.912 11.472 128.608 12.576L131.872 10.704C130.456 8.44801 127.744 6.86401 124.528 6.86401C119.584 6.86401 115.72 10.752 115.72 15.624C115.72 20.448 119.512 24.336 124.792 24.336C129.496 24.336 133.072 21.216 133.072 16.08V14.64Z" fill="#24F281"/>
<path d="M140.877 24.336C144.405 24.336 147.237 21.576 147.237 18C147.237 14.424 144.405 11.664 140.877 11.664C137.349 11.664 134.517 14.424 134.517 18C134.517 21.576 137.349 24.336 140.877 24.336ZM140.877 20.832C139.317 20.832 138.117 19.704 138.117 18C138.117 16.296 139.317 15.168 140.877 15.168C142.437 15.168 143.637 16.296 143.637 18C143.637 19.704 142.437 20.832 140.877 20.832Z" fill="#24F281"/>
</svg>
