<?xml version="1.0" standalone="no"?>
<!DOCTYPE svg PUBLIC "-//W3C//DTD SVG 20010904//EN"
 "http://www.w3.org/TR/2001/REC-SVG-20010904/DTD/svg10.dtd">
<svg version="1.0" xmlns="http://www.w3.org/2000/svg"
 width="512.000000pt" height="512.000000pt" viewBox="0 0 512.000000 512.000000"
 preserveAspectRatio="xMidYMid meet">
<g transform="translate(0.000000,512.000000) scale(0.100000,-0.100000)"
fill="rgba(0, 0, 0, 0.65)" stroke="none">
<path d="M2270 5109 c-438 -51 -798 -217 -1106 -512 -161 -154 -347 -392 -360
-462 -13 -71 0 -152 32 -197 30 -43 464 -381 532 -415 25 -12 60 -18 107 -18
97 0 138 26 247 157 165 199 301 310 449 368 108 41 190 53 342 48 116 -4 144
-8 227 -37 310 -105 478 -322 415 -536 -20 -70 -55 -124 -121 -185 -68 -64
-139 -111 -374 -245 -113 -64 -236 -138 -275 -163 -273 -181 -427 -377 -497
-633 -20 -73 -23 -107 -23 -264 l0 -180 30 -45 c17 -24 50 -58 73 -75 l44 -30
451 0 452 0 45 30 c24 17 58 52 74 78 26 42 31 62 36 147 13 181 52 221 460
462 240 142 338 214 457 333 229 231 333 492 333 841 0 215 -39 386 -128 569
-84 172 -158 275 -305 423 -278 282 -665 476 -1069 537 -108 16 -421 18 -548
4z"/>
<path d="M2315 1374 c-232 -51 -430 -227 -508 -453 -25 -70 -31 -107 -35 -196
-5 -137 13 -228 67 -339 119 -243 350 -386 625 -386 200 0 347 60 487 200 95
94 134 155 175 275 25 72 28 94 29 215 0 116 -3 145 -23 205 -77 230 -236 391
-457 461 -103 33 -257 41 -360 18z"/>
</g>
</svg>
