<?xml version="1.0" standalone="no"?>
<!DOCTYPE svg PUBLIC "-//W3C//DTD SVG 20010904//EN"
 "http://www.w3.org/TR/2001/REC-SVG-20010904/DTD/svg10.dtd">
<svg version="1.0" xmlns="http://www.w3.org/2000/svg"
 width="512.000000pt" height="512.000000pt" viewBox="0 0 512.000000 512.000000"
 preserveAspectRatio="xMidYMid meet">
<g transform="translate(0.000000,512.000000) scale(0.100000,-0.100000)"
fill="rgba(0, 0, 0, 0.65)" stroke="none">
<path d="M1855 5114 c-293 -42 -485 -99 -710 -211 -262 -131 -514 -335 -696
-563 -212 -265 -360 -595 -426 -950 -25 -136 -25 -564 0 -700 110 -587 432
-1078 917 -1396 227 -148 490 -254 765 -305 140 -27 464 -37 616 -20 339 39
659 159 947 357 l92 64 0 -107 c0 -87 4 -117 21 -153 29 -65 1044 -1080 1109
-1109 55 -25 155 -28 208 -6 56 24 368 337 398 400 31 64 32 151 3 215 -29 65
-1044 1080 -1109 1109 -36 17 -66 21 -153 21 l-107 0 64 93 c198 287 318 607
357 946 17 152 7 476 -20 616 -107 567 -433 1058 -911 1371 -227 148 -489 253
-765 306 -87 16 -157 21 -340 23 -126 2 -243 1 -260 -1z m462 -823 c382 -75
707 -317 891 -661 161 -301 188 -685 72 -1015 -125 -355 -420 -650 -775 -775
-271 -95 -579 -95 -850 0 -355 125 -650 420 -775 775 -116 330 -89 714 72
1015 182 341 506 583 883 660 128 26 352 26 482 1z"/>
</g>
</svg>
