<svg width="16" height="16" viewBox="0 0 16 16" fill="none" xmlns="http://www.w3.org/2000/svg">
<path d="M8 0C3.584 0 0 3.584 0 8C0 12.416 3.584 16 8 16C12.416 16 16 12.416 16 8C16 3.584 12.416 0 8 0ZM4.056 13.024C4.4 12.304 6.496 11.6 8 11.6C9.504 11.6 11.608 12.304 11.944 13.024C10.856 13.888 9.488 14.4 8 14.4C6.512 14.4 5.144 13.888 4.056 13.024ZM13.088 11.864C11.944 10.472 9.168 10 8 10C6.832 10 4.056 10.472 2.912 11.864C2.096 10.792 1.6 9.456 1.6 8C1.6 4.472 4.472 1.6 8 1.6C11.528 1.6 14.4 4.472 14.4 8C14.4 9.456 13.904 10.792 13.088 11.864ZM8 3.2C6.448 3.2 5.2 4.448 5.2 6C5.2 7.552 6.448 8.8 8 8.8C9.552 8.8 10.8 7.552 10.8 6C10.8 4.448 9.552 3.2 8 3.2ZM8 7.2C7.336 7.2 6.8 6.664 6.8 6C6.8 5.336 7.336 4.8 8 4.8C8.664 4.8 9.2 5.336 9.2 6C9.2 6.664 8.664 7.2 8 7.2Z" fill="#BDBDBD"/>
</svg>
