<?xml version="1.0" encoding="utf-8"?>
<!-- Generator: Adobe Illustrator 21.1.0, SVG Export Plug-In . SVG Version: 6.00 Build 0)  -->
<svg version="1.1" id="Layer_1" xmlns="http://www.w3.org/2000/svg" xmlns:xlink="http://www.w3.org/1999/xlink" x="0px" y="0px"
	 viewBox="0 0 512 346" style="enable-background:new 0 0 512 346;" xml:space="preserve">
<style type="text/css">
	.st0{fill:url(#SVGID_1_);}
	.st1{fill:url(#SVGID_2_);}
	.st2{fill:url(#SVGID_3_);}
	.st3{fill:url(#SVGID_4_);}
	.st4{fill:url(#SVGID_5_);}
	.st5{fill:url(#SVGID_6_);}
	.st6{fill:url(#SVGID_7_);}
</style>
<linearGradient id="SVGID_1_" gradientUnits="userSpaceOnUse" x1="996.1631" y1="-4323.2124" x2="1392.2704" y2="-3927.1057" gradientTransform="matrix(0 1 1 0 4378.2646 -1032.8903)">
	<stop  offset="0" style="stop-color:#273469"/>
	<stop  offset="0.176" style="stop-color:#283877"/>
	<stop  offset="0.5068" style="stop-color:#2A449B"/>
	<stop  offset="0.9539" style="stop-color:#2E56D5"/>
	<stop  offset="0.9987" style="stop-color:#2E58DB"/>
</linearGradient>
<path class="st0" d="M10.1,321.3V8.8c0-4.8,4-8.8,8.8-8.8h472.1c4.8,0,8.8,4,8.8,8.8v312.5H10.1z"/>
<linearGradient id="SVGID_2_" gradientUnits="userSpaceOnUse" x1="1279.1396" y1="-4066.2788" x2="1002.8078" y2="-4066.2788" gradientTransform="matrix(0 1 1 0 4321.9844 -981.3646)">
	<stop  offset="0" style="stop-color:#196CF2"/>
	<stop  offset="1" style="stop-color:#59CEF1"/>
</linearGradient>
<polygon class="st1" points="28.6,301.5 28.6,19.8 482.8,19.8 482.8,301.5 "/>
<linearGradient id="SVGID_3_" gradientUnits="userSpaceOnUse" x1="1363.9329" y1="-4376.3613" x2="1363.9329" y2="-3873.6531" gradientTransform="matrix(0 1 1 0 4378.2646 -1032.8903)">
	<stop  offset="0" style="stop-color:#273469"/>
	<stop  offset="0.176" style="stop-color:#283877"/>
	<stop  offset="0.5068" style="stop-color:#2A449B"/>
	<stop  offset="0.9539" style="stop-color:#2E56D5"/>
	<stop  offset="0.9987" style="stop-color:#2E58DB"/>
</linearGradient>
<path class="st2" d="M0,340v-23.9h511.4V340c0,3.3-2.6,6-6,6H6C2.6,345.9,0,343.3,0,340z"/>
<linearGradient id="SVGID_4_" gradientUnits="userSpaceOnUse" x1="226.6656" y1="192.6154" x2="294.6483" y2="192.6154" gradientTransform="matrix(1 0 0 -1 0 512)">
	<stop  offset="0" style="stop-color:#00A022"/>
	<stop  offset="1" style="stop-color:#2AFF91"/>
</linearGradient>
<path class="st3" d="M294.7,322.7H226c-0.8,0-1.3-0.5-1.3-1.3v-4c0-0.8,0.5-1.3,1.3-1.3h68.7c0.8,0,1.3,0.5,1.3,1.3v4
	C296.2,322.1,295.5,322.7,294.7,322.7z"/>
<g>
	
		<linearGradient id="SVGID_5_" gradientUnits="userSpaceOnUse" x1="34.5288" y1="306.8737" x2="422.7948" y2="451.8486" gradientTransform="matrix(1 0 0 -1 0 512)">
		<stop  offset="0" style="stop-color:#00A022"/>
		<stop  offset="1" style="stop-color:#2AFF91"/>
	</linearGradient>
	<path class="st4" d="M185.5,214.6h-14.7v23.6h-34.2v-23.6H69.5v-31.2l47.1-92.8h36.3l-47.1,92.8h30.8v-31.7h34.2v31.7h14.7V214.6z"
		/>
	
		<linearGradient id="SVGID_6_" gradientUnits="userSpaceOnUse" x1="48.0396" y1="270.6896" x2="436.3056" y2="415.6645" gradientTransform="matrix(1 0 0 -1 0 512)">
		<stop  offset="0" style="stop-color:#00A022"/>
		<stop  offset="1" style="stop-color:#2AFF91"/>
	</linearGradient>
	<path class="st5" d="M194.1,164.3c0-45.5,21.9-76.8,60.2-76.8s60.2,31.2,60.2,76.8s-22,76.8-60.2,76.8S194.1,210,194.1,164.3z
		 M280.6,164.3c0-28.5-8.7-43.9-26.4-43.9s-26.4,15.4-26.4,43.9s8.7,43.9,26.4,43.9S280.6,192.8,280.6,164.3z"/>
	
		<linearGradient id="SVGID_7_" gradientUnits="userSpaceOnUse" x1="65.7903" y1="223.1505" x2="454.0563" y2="368.1254" gradientTransform="matrix(1 0 0 -1 0 512)">
		<stop  offset="0" style="stop-color:#00A022"/>
		<stop  offset="1" style="stop-color:#2AFF91"/>
	</linearGradient>
	<path class="st6" d="M441,214.6h-14.7v23.6h-34.2v-23.6H325v-31.2l47.1-92.8h36.3l-47.1,92.8h30.8v-31.7h34.2v31.7H441V214.6z"/>
</g>
</svg>
