<svg width="22" height="17" viewBox="0 0 22 17" fill="none" xmlns="http://www.w3.org/2000/svg">
<path fill-rule="evenodd" clip-rule="evenodd" d="M22 14.6979C22 14.4057 21.768 14.1667 21.4844 14.1667H2.75V0.53125C2.75 0.239062 2.51797 0 2.23438 0H0.515625C0.232031 0 0 0.239062 0 0.53125V16.4688C0 16.7609 0.232031 17 0.515625 17H21.4844C21.768 17 22 16.7609 22 16.4688V14.6979ZM15.0287 1H19.9462C20.5302 1 21 1.45453 21 2.0195V6.77717C21 7.68622 19.8628 8.14075 19.1998 7.49931L17.7334 6.08051L12.9388 10.7192C12.7324 10.9189 12.3988 10.9189 12.1924 10.7192L9.7556 8.36164L6.1509 11.8492C5.94454 12.0531 5.60646 12.0488 5.4001 11.8449L4.14877 10.596C3.9468 10.3964 3.95119 10.0736 4.15755 9.87815L9.3824 4.8741C9.58876 4.67445 9.91806 4.67445 10.1244 4.8741L12.5656 7.23594L15.7269 4.13921L14.2823 2.74165C13.6194 2.10021 14.0892 1 15.0287 1Z" fill="#52C41A"/>
</svg>
