<svg width="22" height="20" viewBox="0 0 22 20" fill="none" xmlns="http://www.w3.org/2000/svg">
<path fill-rule="evenodd" clip-rule="evenodd" d="M11 0.450988V9H19.549C19.8081 9 20.0108 8.78224 19.9996 8.52318C19.7593 3.92766 16.0761 0.240736 11.4768 0.000447529C11.2178 -0.010816 11 0.191927 11 0.450988ZM21.549 11C21.8081 11 22.0108 11.2115 21.9996 11.4632C21.8944 13.4036 21.1285 15.3147 19.7018 16.8539C19.5291 17.0399 19.2287 17.0508 19.0448 16.8721L13 11H21.549ZM15.8452 17.5563C16.0469 17.3781 16.0508 17.0612 15.861 16.8711L9.49286 10.4945V1.47609C9.49286 1.20281 9.26345 0.98497 8.99053 1.00081C3.98701 1.26221 0.00792169 5.40108 1.09897e-05 10.4747C-0.00789972 15.7146 4.25597 19.996 9.48495 20C11.9294 20 14.1602 19.0772 15.8452 17.5563Z" fill="#1890FF"/>
</svg>
