<?xml version="1.0" standalone="no"?>
<!DOCTYPE svg PUBLIC "-//W3C//DTD SVG 20010904//EN"
 "http://www.w3.org/TR/2001/REC-SVG-20010904/DTD/svg10.dtd">
<svg version="1.0" xmlns="http://www.w3.org/2000/svg"
 width="512.000000pt" height="512.000000pt" viewBox="0 0 512.000000 512.000000"
 preserveAspectRatio="xMidYMid meet">
<g transform="translate(0.000000,512.000000) scale(0.100000,-0.100000)"
fill="rgba(0, 0, 0, 0.65);" stroke="none">
<path d="M2240 5024 c-472 -60 -931 -264 -1290 -572 l-105 -90 -265 263 c-228
226 -270 264 -302 270 -60 11 -106 -3 -152 -45 l-41 -39 -3 -793 c-2 -777 -2
-794 18 -826 11 -18 34 -41 52 -52 32 -20 49 -20 826 -18 l793 3 39 41 c42 46
56 92 45 152 -6 32 -44 75 -278 309 -164 165 -267 276 -262 281 283 253 616
412 980 467 130 19 400 19 529 0 805 -121 1430 -746 1551 -1551 9 -57 15 -168
15 -264 0 -96 -6 -207 -15 -264 -121 -805 -746 -1430 -1551 -1551 -128 -19
-399 -19 -526 0 -312 47 -573 156 -848 354 -86 62 -109 71 -183 71 -89 -1
-128 -23 -237 -136 -100 -104 -120 -140 -120 -219 0 -110 60 -181 265 -317
304 -202 611 -325 966 -388 156 -28 513 -39 682 -20 1149 124 2059 1021 2203
2170 18 147 18 453 0 600 -50 395 -179 747 -394 1070 -409 615 -1038 1004
-1772 1096 -142 17 -476 17 -620 -2z"/>
<path d="M2375 3821 c-22 -10 -54 -34 -72 -52 -66 -69 -63 -35 -63 -821 l0
-713 334 -260 c215 -167 352 -267 383 -278 65 -25 147 -18 208 18 49 28 161
161 195 231 24 48 27 148 6 198 -23 55 -66 95 -280 261 l-206 160 0 548 c0
604 2 588 -63 656 -58 61 -94 71 -257 71 -120 0 -152 -4 -185 -19z"/>
</g>
</svg>
