<svg width="14" height="14" viewBox="0 0 14 14" fill="none" xmlns="http://www.w3.org/2000/svg">
<path fill-rule="evenodd" clip-rule="evenodd" d="M7.00492 13.7812C10.7412 13.7786 13.7882 10.7234 13.7812 6.98718C13.7743 3.24789 10.7409 0.21875 7 0.21875C5.18306 0.21875 3.53306 0.933406 2.31563 2.09686L0.965617 0.74684C0.689992 0.471242 0.21875 0.666449 0.21875 1.05621V5.03125C0.21875 5.27289 0.414613 5.46875 0.65625 5.46875H4.63129C5.02105 5.46875 5.21626 4.99751 4.94063 4.72188L3.55283 3.33408C4.45296 2.48743 5.66524 1.96875 7 1.96875C9.78056 1.96875 12.0312 4.219 12.0312 7C12.0312 9.78056 9.781 12.0312 7 12.0312C5.81823 12.0312 4.73216 11.6248 3.87398 10.9438C3.61318 10.7369 3.23736 10.7626 3.00196 10.998L2.69388 11.3061C2.41864 11.5814 2.44128 12.0353 2.74416 12.2798C3.90898 13.2199 5.39123 13.7824 7.00492 13.7812ZM9.10302 8.79607L8.83442 9.14143C8.6119 9.42752 8.19962 9.47904 7.91352 9.25654L6.125 7.86546V4.15625C6.125 3.79381 6.41881 3.5 6.78125 3.5H7.21874C7.58118 3.5 7.87499 3.79381 7.87499 4.15625V7.00954L8.9879 7.87516C9.274 8.09766 9.32554 8.50998 9.10302 8.79607Z"/>
</svg>
