<?xml version="1.0" encoding="UTF-8"?>
<svg width="11px" height="16px" viewBox="0 0 11 16" version="1.1" xmlns="http://www.w3.org/2000/svg" xmlns:xlink="http://www.w3.org/1999/xlink">
    <!-- Generator: Sketch 49.3 (51167) - http://www.bohemiancoding.com/sketch -->
    <title>Shape</title>
    <desc>Created with Sketch.</desc>
    <defs></defs>
    <g id="Page-1" stroke="none" stroke-width="1" fill="none" fill-rule="evenodd">
        <g id="CDS-Explore-assets-v0.1" transform="translate(-70.000000, -397.000000)" fill="#FFFFFF">
            <g id="Bench" transform="translate(50.000000, 230.000000)">
                <g id="Asset-info">
                    <g id="Icon-location" transform="translate(20.000000, 167.000000)">
                        <path d="M0,5.2 C0,8.08 5.5,16 5.5,16 C5.5,16 11,8.08 11,5.2 C11,2.33 8.54,0 5.5,0 C2.46,0 0,2.33 0,5.2 L0,5.2 Z M2,5.33954155 C2,3.56446991 3.68481375,2 5.51002865,2 C7.33524355,2 9,3.58452722 9,5.3495702 C9,7.12464183 7.3252149,9 5.48997135,9 C3.66475645,9 2,7.11461318 2,5.33954155 L2,5.33954155 Z" id="Shape"></path>
                    </g>
                </g>
            </g>
        </g>
    </g>
</svg>