<svg xmlns="http://www.w3.org/2000/svg" width="70" height="71" viewBox="0 0 70 71">
    <g fill="none" fill-rule="nonzero">
        <path fill="#FFF" d="M20.546 47.697v7.475l-3.56-.013V47.87l-.029-1.02c0-1.47-.892-2.575-2.248-2.683a2.407 2.407 0 0 0-.883.088c-.464.11-.882.363-1.194.725-.11.13-.205.274-.28.428a3.33 3.33 0 0 0-.28 1.195c-.007.117-.015.231-.018.347v8.206H8.512V47.43v-.478c0-.114-.01-.23-.02-.344a3.343 3.343 0 0 0-.279-1.198 2.059 2.059 0 0 0-.272-.428 2.268 2.268 0 0 0-1.192-.725 2.418 2.418 0 0 0-.883-.088c-1.357.107-2.247 1.214-2.248 2.683l-.028 1.02v7.288l-3.562.017v-7.479c0-.356 0-.715.023-1.072 0-.08.01-.156.014-.234.13-1.957.907-3.626 2.622-4.648 1.485-.883 3.425-1.164 5.09-.649 1.063.331 1.764.968 2.48 1.785l.04.046.038-.046c.722-.817 1.418-1.454 2.481-1.785 1.659-.515 3.605-.238 5.091.649 1.712 1.022 2.492 2.69 2.622 4.648 0 .078.01.156.012.234-.001.36.005.72.005 1.072zM66.812 44.835v5.783c0 1.501 1.084 1.526 3.14 1.417v3.247c-4.918.556-6.727-.857-6.727-4.669v-5.778h-2.416V41.39h2.417v-1.693l3.586-3.594v5.287h3.14v3.445h-3.14zM32.335 41.375l-3.07 9.31-3.597-9.31h-3.903l5.68 13.406c-.666 1.885-1.714 2.684-3.63 2.659v3.322c3.547.192 5.87-1.552 7.31-5.54l5.041-13.847h-3.83zM55.19 41.375h3.572v13.847H55.19zM50.668 43.12c-1.303-1.413-2.908-2.133-4.77-2.133-1.938 0-3.438.664-4.486 2.019v-7.174h-.1l-3.474 3.474v15.923h3.572v-1.635c1.055 1.355 2.549 2.02 4.486 2.02a6.275 6.275 0 0 0 4.77-2.104c1.331-1.413 1.994-3.157 1.994-5.207s-.663-3.77-1.992-5.182zm-2.684 8.002c-.723.723-1.636 1.084-2.741 1.084-1.102 0-2.02-.359-2.742-1.081-.721-.747-1.081-1.688-1.08-2.824 0-1.138.358-2.079 1.08-2.794.723-.747 1.636-1.1 2.742-1.1s2.019.36 2.74 1.1c.748.722 1.102 1.662 1.102 2.794 0 1.133-.354 2.073-1.101 2.821z"/>
        <path fill="#24F281" d="M54.33 37.049l2.632-2.626 2.628 2.635-2.632 2.626z"/>
        <path fill="#FFF" d="M52.007 17.013l-6.376 6.381h-.007c-5.856-5.869-15.361-5.88-21.23-.023l-.025.023h-.01l-6.383-6.38L35 0l17.007 17.013z"/>
        <path fill="#24F281" d="M43.747 25.276L35 34.022l-8.756-8.748A12.259 12.259 0 0 1 35 21.64c.585 0 1.17.041 1.75.122a12.241 12.241 0 0 1 6.997 3.513zM59.078 64.449c0 3.944-2.747 6.34-6.359 6.34-4.056 0-6.968-2.986-6.968-6.692a6.691 6.691 0 0 1 6.765-6.726c2.47 0 4.559 1.216 5.64 2.948l-2.5 1.438c-.535-.848-1.696-1.511-3.153-1.511-2.175 0-3.797 1.603-3.797 3.87 0 2.194 1.548 3.797 4.056 3.797 1.713 0 2.838-.756 3.298-1.99H52.61V63.34h6.47l-.001 1.108zM60.184 65.922a4.885 4.885 0 1 1 4.885 4.866 4.83 4.83 0 0 1-4.885-4.866zm7.004 0c0-1.309-.922-2.175-2.119-2.175s-2.12.866-2.12 2.175c0 1.309.922 2.175 2.12 2.175 1.199 0 2.12-.866 2.12-2.175z"/>
    </g>
</svg>
