<svg xmlns="http://www.w3.org/2000/svg" viewBox="0 0 650 500" class="Header__logo Header__logo--is-home">
    <defs>
        <style>.a<!-- -->{<!-- -->fill:#0b3f9c<!-- -->}<!-- -->.b<!-- -->{<!-- -->fill:url(#a)<!-- -->}<!-- -->.c<!-- -->{<!-- -->fill:url(#b)<!-- -->}<!-- -->.d<!-- -->{<!-- -->fill:url(#c)<!-- -->}</style>
        <linearGradient id="a" x1="493.93" y1="315.28" x2="515.44" y2="293.76" gradientTransform="rotate(44.93 504.658 304.492)" gradientUnits="userSpaceOnUse">
            <stop offset="0" stop-color="#1990f2"></stop>
            <stop offset=".53" stop-color="#2daaf5"></stop>
            <stop offset="1" stop-color="#3cbcf7"></stop>
        </linearGradient>
        <linearGradient id="b" x1="255.55" y1="210.25" x2="394.66" y2="71.13" gradientUnits="userSpaceOnUse">
            <stop offset="0" stop-color="#273469"></stop>
            <stop offset=".18" stop-color="#283877"></stop>
            <stop offset=".51" stop-color="#2a449b"></stop>
            <stop offset=".95" stop-color="#2e56d5"></stop>
            <stop offset="1" stop-color="#2e58db"></stop>
        </linearGradient>
        <linearGradient id="c" x1="253.57" y1="229.13" x2="396.67" y2="229.13" gradientUnits="userSpaceOnUse">
            <stop offset="0" stop-color="#1990f2"></stop>
            <stop offset="1" stop-color="#3cbcf7"></stop>
        </linearGradient>
    </defs>
    <title>MyBit-logo-FINAL</title>
    <path class="a" d="M207 391.51v61.1l-29.13-.14v-59.59l-.23-8.33c0-12-7.29-21.05-18.38-21.94a20 20 0 0 0-7.25.72 18.54 18.54 0 0 0-9.76 5.93 16.49 16.49 0 0 0-2.21 3.5 27.23 27.23 0 0 0-2.29 9.78c-.07.94-.12 1.88-.15 2.83v67.08h-29q0-31.58.05-63.17c0-1.28 0-2.59-.05-3.91 0-.94-.07-1.88-.15-2.81a27.47 27.47 0 0 0-2.28-9.8 16.9 16.9 0 0 0-2.22-3.5 18.58 18.58 0 0 0-9.75-5.93 20 20 0 0 0-7.26-.72c-11.09.88-18.37 9.93-18.38 21.94l-.23 8.33v59.59l-29.12.14v-61.1c0-2.91.05-5.84.2-8.77 0-.65.07-1.27.11-1.91 1.06-16 7.41-29.65 21.43-38 12.14-7.25 28-9.51 41.61-5.3 8.69 2.7 14.37 7.91 20.28 14.59l.32.38.31-.38c5.91-6.68 11.59-11.89 20.29-14.59 13.56-4.21 29.46-1.95 41.61 5.3 14 8.36 20.37 22 21.44 38 0 .64.07 1.27.1 1.91.04 2.93.09 5.86.09 8.77z"></path>
    <path class="a" d="M137.75 392.92v59.55h-.21V389.3v-3.91c0-.95.07-1.89.15-2.83l.07.15zM585.21 368.09v47.27c0 12.27 8.86 12.48 25.68 11.59v26.58c-40.21 4.55-55-7-55-38.16v-47.28h-19.75v-28.16h19.76v-13.84l29.31-29.38v43.22h25.68v28.15zM303.37 339.81l-25.13 76.1-29.41-76.1h-31.92l46.43 109.59c-5.43 15.41-14 21.94-29.67 21.73v27.17c29 1.57 48-12.69 59.76-45.29l41.21-113.2zM490.21 339.81h29.2v113.2h-29.2zM453.24 354.07c-10.65-11.55-23.77-17.44-39-17.44-15.83 0-28.1 5.43-36.67 16.51v-58.66h-.81l-28.4 28.4v130.18h29.2v-13.37c8.62 11.08 20.84 16.51 36.67 16.51 15.15 0 28.31-5.65 39-17.19 10.87-11.55 16.3-25.81 16.3-42.57s-5.42-30.82-16.29-42.37zm-21.94 65.41q-8.85 8.85-22.41 8.83c-9 0-16.51-2.93-22.41-8.83q-8.85-9.17-8.83-23.09c0-9.3 2.93-17 8.83-22.88 5.9-6.11 13.37-9 22.41-9s16.51 2.93 22.41 9c6.11 5.9 9 13.58 9 22.88s-2.89 16.98-9 23.09z"></path>
    <path class="b" d="M483.17 304.447l21.515-21.463 21.491 21.544-21.515 21.463z"></path>
    <path class="c" d="M464.19 140.65l-52.13 52.17H412a122.71 122.71 0 0 0-173.74 0h-.09L186 140.65 325.12 1.58z"></path>
    <path class="d" d="M396.67 208.2l-71.5 71.5-71.6-71.5a100.16 100.16 0 0 1 71.52-29.66 102 102 0 0 1 14.3 1 100 100 0 0 1 57.28 28.66z"></path>
</svg>