<svg width="14" height="14" viewBox="0 0 14 14" fill="none" xmlns="http://www.w3.org/2000/svg">
<path d="M13.125 8.04453V5.95547C13.125 5.5918 12.8324 5.29922 12.4688 5.29922H8.70078V1.53125C8.70078 1.16758 8.4082 0.875 8.04453 0.875H5.95547C5.5918 0.875 5.29922 1.16758 5.29922 1.53125V5.29922H1.53125C1.16758 5.29922 0.875 5.5918 0.875 5.95547V8.04453C0.875 8.4082 1.16758 8.70078 1.53125 8.70078H5.29922V12.4688C5.29922 12.8324 5.5918 13.125 5.95547 13.125H8.04453C8.4082 13.125 8.70078 12.8324 8.70078 12.4688V8.70078H12.4688C12.8324 8.70078 13.125 8.4082 13.125 8.04453Z" />
</svg>
