<?xml version="1.0" encoding="utf-8"?>
<!-- Generator: Adobe Illustrator 22.1.0, SVG Export Plug-In . SVG Version: 6.00 Build 0)  -->
<svg version="1.1" id="Layer_1" xmlns="http://www.w3.org/2000/svg" xmlns:xlink="http://www.w3.org/1999/xlink" x="0px" y="0px"
	 viewBox="0 0 50 50" style="enable-background:new 0 0 50 50;" xml:space="preserve">
<g id="Symbols">
	<g transform="translate(-26.000000, -109.000000)">
		<g id="Mask">
			<path id="path-1_1_" class="st0" d="M75.4,131.1c-4.9-8.3-14-13.9-24.4-13.9c-10.4,0-19.5,5.6-24.4,13.9c-0.8,1.3-0.8,2.9,0,4.2
				c4.9,8.3,14,13.9,24.4,13.9c10.4,0,19.5-5.6,24.4-13.9C76.2,134,76.2,132.4,75.4,131.1z M51,145c-6.5,0-11.8-5.3-11.8-11.8
				c0-6.5,5.3-11.8,11.8-11.8c6.5,0,11.8,5.3,11.8,11.8C62.8,139.8,57.5,145,51,145z M60,133.2c0,5-4,9-9,9s-9-4-9-9
				c0-1.5,0.4-3,1.1-4.3l0,0c0,2.1,1.7,3.7,3.7,3.7s3.7-1.7,3.7-3.7c0-2.1-1.7-3.7-3.7-3.7l0,0c1.3-0.7,2.7-1.1,4.3-1.1
				C56,124.2,60,128.2,60,133.2z"/>
		</g>
	</g>
</g>
</svg>
