<svg xmlns="http://www.w3.org/2000/svg" xmlns:xlink="http://www.w3.org/1999/xlink" width="14" height="8" viewBox="0 0 14 8">
    <defs>
        <path id="a" d="M13.144 6.468A7.118 7.118 0 0 0 7 2.98 7.118 7.118 0 0 0 .856 6.468a1.049 1.049 0 0 0 0 1.064A7.118 7.118 0 0 0 7 11.02a7.118 7.118 0 0 0 6.144-3.488 1.049 1.049 0 0 0 0-1.064zM7 9.97A2.969 2.969 0 0 1 4.03 7a2.969 2.969 0 1 1 5.94 0A2.969 2.969 0 0 1 7 9.971zM9.271 7a2.271 2.271 0 1 1-4.275-1.07.935.935 0 1 0 .935-.935A2.271 2.271 0 0 1 9.27 7z"/>
    </defs>
    <g fill="none" fill-rule="evenodd" opacity=".65" transform="translate(0 -3)">
        <mask id="b" fill="#fff">
            <use xlink:href="#a"/>
        </mask>
        <use fill="#000" fill-rule="nonzero" xlink:href="#a"/>
        <g fill="#000" fill-opacity=".65" mask="url(#b)">
            <path d="M0 0h14v14H0z"/>
        </g>
    </g>
</svg>
