<?xml version="1.0" encoding="UTF-8"?>
<svg width="20px" height="22px" viewBox="0 0 20 22" version="1.1" xmlns="http://www.w3.org/2000/svg" xmlns:xlink="http://www.w3.org/1999/xlink">
    <!-- Generator: Sketch 51.3 (57544) - http://www.bohemiancoding.com/sketch -->
    <title>Date</title>
    <g id="Date" stroke="none" stroke-width="1" fill="none" fill-rule="evenodd">
        <path d="M8.1494,15.0002 C8.1494,17.6792 10.3194,19.8502 13.0004,19.8502 C15.6794,19.8502 17.8504,17.6782 17.8504,15.0002 C17.8504,12.3202 15.6804,10.1502 13.0004,10.1502 C10.3214,10.1502 8.1494,12.3212 8.1494,15.0002 Z M0.0004,18.0002 L0.0004,4.0002 C0.0004,2.8902 0.8904,2.0002 2.0004,2.0002 L3.0004,2.0002 L3.0004,0.0002 L5.0004,0.0002 L5.0004,2.0002 L13.0004,2.0002 L13.0004,0.0002 L15.0004,0.0002 L15.0004,2.0002 L16.0004,2.0002 C17.1044,2.0002 18.0004,2.8952 18.0004,4.0002 L18.0004,10.1002 C19.2394,11.3602 20.0004,13.0892 20.0004,15.0002 C20.0004,18.8662 16.8654,22.0002 13.0004,22.0002 C11.0904,22.0002 9.3594,21.2402 8.1004,20.0002 L2.0004,20.0002 C0.8904,20.0002 0.0004,19.1002 0.0004,18.0002 Z M2.0004,7.0002 L2.0004,18.0002 L6.6704,18.0002 C6.2394,17.0892 6.0004,16.0702 6.0004,15.0002 C6.0004,11.1332 9.1344,8.0002 13.0004,8.0002 C14.0694,8.0002 15.0904,8.2402 16.0004,8.6702 L16.0004,7.0002 L2.0004,7.0002 Z M13.5004,12.0002 L13.5004,14.8202 L15.9394,16.2302 L15.1894,17.5302 L12.0004,15.6902 L12.0004,12.0002 L13.5004,12.0002 Z" id="Fill-1" fill="#1890FF"></path>
    </g>
</svg>