<svg width="16" height="16" viewBox="0 0 16 16" fill="none" xmlns="http://www.w3.org/2000/svg">
<path d="M9.38364 8.00062L15.7131 1.67172C16.0956 1.2889 16.0956 0.669929 15.7131 0.289598C15.3305 -0.0932184 14.712 -0.0932184 14.3319 0.289598L8 6.61602L1.66806 0.287113C1.28551 -0.0957042 0.666977 -0.0957042 0.286912 0.287113C-0.0956373 0.669929 -0.0956373 1.2889 0.286912 1.66923L6.61636 7.99814L0.286912 14.3295C-0.0956373 14.7123 -0.0956373 15.3313 0.286912 15.7116C0.478187 15.9031 0.729079 15.9975 0.977488 15.9975C1.22838 15.9975 1.47679 15.9031 1.66806 15.7116L8 9.38274L14.3319 15.7141C14.5232 15.9055 14.7716 16 15.0225 16C15.2734 16 15.5218 15.9055 15.7131 15.7141C16.0956 15.3313 16.0956 14.7123 15.7131 14.332L9.38364 8.00062Z" fill="#BDBDBD"/>
</svg>
