<svg width="16" height="9" viewBox="0 0 16 9" fill="none" xmlns="http://www.w3.org/2000/svg">
<path d="M0 4.5C0 2.01273 1.968 0 4.4 0H12.8C14.568 0 16 1.46455 16 3.27273C16 5.08091 14.568 6.54545 12.8 6.54545H6C4.896 6.54545 4 5.62909 4 4.5C4 3.37091 4.896 2.45455 6 2.45455H12V4.09091H5.928C5.488 4.09091 5.488 4.90909 5.928 4.90909H12.8C13.68 4.90909 14.4 4.17273 14.4 3.27273C14.4 2.37273 13.68 1.63636 12.8 1.63636H4.4C2.856 1.63636 1.6 2.92091 1.6 4.5C1.6 6.07909 2.856 7.36364 4.4 7.36364H12V9H4.4C1.968 9 0 6.98727 0 4.5Z"/>
</svg>
