<svg width="33" height="32" viewBox="0 0 33 32" fill="none" xmlns="http://www.w3.org/2000/svg">
<path d="M16.0023 0C13.3318 0.000230612 10.7039 0.668824 8.35802 1.94484C6.01215 3.22085 4.02295 5.0637 2.57173 7.30542C1.12052 9.54713 0.253438 12.1164 0.0495328 14.7791C-0.154373 17.4417 0.31138 20.1131 1.40434 22.5496C1.32762 22.6424 1.24434 22.7352 1.16122 22.8248C0.684597 23.3417 0.339264 23.9655 0.154352 24.6439C-0.0305604 25.3222 -0.0496284 26.035 0.0987565 26.7223C0.293485 27.7013 0.588359 28.6578 0.978726 29.5766C1.29327 30.2934 1.80887 30.9038 2.46311 31.3337C3.11734 31.7636 3.88216 31.9946 4.665 31.9989C5.13313 31.9724 5.59728 31.8976 6.05002 31.7756C6.52419 31.6874 7.003 31.6263 7.48412 31.5925C8.53172 31.5305 9.56882 31.349 10.5753 31.0517C12.7712 31.8434 15.1138 32.145 17.4386 31.9353C19.7635 31.7257 22.0143 31.0099 24.0332 29.8381C26.0521 28.6664 27.7902 27.0671 29.1254 25.1524C30.4607 23.2377 31.3609 21.0541 31.7628 18.7546C32.1646 16.4552 32.0585 14.0956 31.4518 11.8416C30.8451 9.58749 29.7526 7.49346 28.2508 5.70639C26.749 3.91932 24.8744 2.4825 22.7585 1.49672C20.6426 0.51094 18.3366 8.74873e-05 16.0023 0ZM8.61049 30.1845C7.91739 30.2791 7.21991 30.3363 6.52599 30.424C6.1691 30.4691 5.80876 30.5159 5.45706 30.5928C5.14932 30.6769 4.83146 30.7182 4.51245 30.7155C4.12351 30.6905 3.74422 30.5838 3.39936 30.4022C3.0545 30.2206 2.75183 29.9683 2.51114 29.6617C2.36593 29.4765 2.24458 29.2737 2.14995 29.0582C1.79504 28.222 1.52799 27.3512 1.3531 26.4599C1.24952 25.9911 1.25602 25.5047 1.37207 25.0389C1.48813 24.5731 1.71058 24.1405 2.02197 23.7752C2.04431 23.7496 2.06994 23.724 2.09228 23.6984C2.38358 23.3885 2.65609 23.0616 2.90835 22.7192C4.40267 20.6905 5.12577 18.3194 5.58341 16.8154C5.67294 16.5274 5.7498 16.2714 5.8234 16.0538C5.86243 15.937 5.93047 15.832 6.02113 15.7486C6.1118 15.6652 6.22214 15.6062 6.34182 15.5771C6.45534 15.5481 6.57439 15.5488 6.68756 15.5791C6.80074 15.6093 6.90425 15.6681 6.9882 15.7498C7.60896 16.3482 8.17536 18.1978 8.24565 18.9721C8.2538 19.178 8.31328 19.3786 8.4187 19.5556C8.52412 19.7326 8.67212 19.8805 8.84924 19.9858C9.02637 20.091 9.227 20.1503 9.43288 20.1583C9.63877 20.1662 9.84337 20.1226 10.0281 20.0313L14.7064 18.0058C14.9472 17.9007 15.2194 17.893 15.4658 17.9843C15.7122 18.0756 15.9136 18.2587 16.0279 18.4953C16.0909 18.62 16.1268 18.7565 16.1334 18.896C16.1401 19.0355 16.1172 19.1749 16.0663 19.3049C16.0171 19.4358 15.9414 19.5551 15.8439 19.6553C15.7464 19.7555 15.6292 19.8345 15.4998 19.8873L11.7465 21.4328C11.568 21.5015 11.4075 21.61 11.2773 21.75C11.147 21.89 11.0505 22.0579 10.9949 22.2409C10.9394 22.4239 10.9263 22.6171 10.9567 22.8059C10.9871 22.9947 11.0602 23.1741 11.1704 23.3304C11.6983 24.1144 12.8824 26.1143 12.5176 27.711C12.4294 28.0677 12.2658 28.4013 12.0378 28.6894C11.8099 28.9776 11.5228 29.2135 11.196 29.3814C10.9985 29.4967 10.7932 29.5982 10.5817 29.6854C9.94853 29.9349 9.28612 30.1027 8.61049 30.1845ZM16.0023 30.7189C14.7309 30.7201 13.4648 30.5555 12.236 30.2293C13.0102 29.7053 13.5568 28.9071 13.7655 27.9958C14.2231 26.0023 13.0199 23.7944 12.236 22.6168L15.9895 21.0681C16.2703 20.9522 16.5255 20.7819 16.7402 20.567C16.9548 20.352 17.1248 20.0966 17.2403 19.8156C17.3557 19.5346 17.4143 19.2335 17.4128 18.9297C17.4112 18.6259 17.3494 18.3254 17.2311 18.0456C17.1127 17.7658 16.9401 17.5122 16.7232 17.2995C16.5063 17.0867 16.2494 16.9191 15.9674 16.8062C15.6853 16.6933 15.3837 16.6374 15.0799 16.6417C14.7761 16.6461 14.4762 16.7105 14.1975 16.8314L9.51921 18.8569C9.4489 18.0666 8.87283 15.7914 7.8777 14.8283C7.63797 14.5969 7.34331 14.4302 7.02145 14.344C6.69958 14.2578 6.36108 14.2549 6.03777 14.3355C5.70723 14.414 5.40228 14.5757 5.15193 14.8054C4.90158 15.035 4.71416 15.3249 4.60751 15.6475C4.53391 15.8746 4.45064 16.1402 4.36112 16.441C3.97393 17.7082 3.38835 19.6313 2.29072 21.3496C1.62178 19.6454 1.27984 17.8303 1.28278 15.9994C1.28278 13.0882 2.14606 10.2423 3.76346 7.82173C5.38086 5.40112 7.67973 3.51449 10.3694 2.40041C13.059 1.28633 16.0186 0.994831 18.8739 1.56279C21.7292 2.13074 24.352 3.53263 26.4105 5.59119C28.4691 7.64975 29.871 10.2725 30.4389 13.1278C31.0069 15.9831 30.7154 18.9427 29.6013 21.6323C28.4872 24.322 26.6006 26.6208 24.18 28.2382C21.7594 29.8556 18.9135 30.7189 16.0023 30.7189Z" fill="#1890FF"/>
<path d="M20.3995 7.4729C20.1509 7.47284 19.9078 7.54652 19.701 7.68462C19.4942 7.82272 19.3331 8.01903 19.2379 8.24874C19.1427 8.47845 19.1177 8.73123 19.1662 8.97511C19.2147 9.21899 19.3344 9.44301 19.5102 9.61886C19.686 9.7947 19.91 9.91446 20.1539 9.96299C20.3977 10.0115 20.6505 9.98664 20.8802 9.8915C21.11 9.79636 21.3063 9.63523 21.4445 9.42848C21.5826 9.22174 21.6564 8.97868 21.6564 8.73002C21.6561 8.39676 21.5235 8.07723 21.2879 7.84155C21.0523 7.60586 20.7328 7.47328 20.3995 7.4729Z" fill="#111111"/>
<path d="M10.325 7.4729C10.0763 7.47281 9.83322 7.54646 9.62642 7.68454C9.41963 7.82263 9.25843 8.01893 9.16321 8.24863C9.06799 8.47834 9.04303 8.73112 9.09148 8.97501C9.13994 9.2189 9.25963 9.44294 9.43543 9.6188C9.61123 9.79466 9.83523 9.91444 10.0791 9.96298C10.323 10.0115 10.5758 9.98665 10.8055 9.89152C11.0352 9.79638 11.2316 9.63525 11.3698 9.4285C11.5079 9.22175 11.5817 8.97868 11.5816 8.73002C11.5813 8.39679 11.4488 8.07728 11.2133 7.84161C10.9777 7.60593 10.6582 7.47333 10.325 7.4729Z" fill="#111111"/>
<path d="M18.1494 14.3952C18.1497 14.4915 18.1284 14.5865 18.0869 14.6733C18.0454 14.7601 17.9849 14.8365 17.9098 14.8966C17.8347 14.9567 17.7469 14.9992 17.6532 15.0207C17.5594 15.0422 17.462 15.0422 17.3682 15.0208C15.8745 14.6671 14.3188 14.6671 12.8252 15.0208C12.7313 15.0422 12.6339 15.0422 12.5401 15.0207C12.4464 14.9992 12.3586 14.9568 12.2835 14.8966C12.2084 14.8365 12.1479 14.7602 12.1064 14.6734C12.0649 14.5865 12.0436 14.4915 12.044 14.3953C12.0441 14.2492 12.0939 14.1075 12.1851 13.9934C12.2763 13.8793 12.4036 13.7995 12.546 13.7671C14.2242 13.3784 15.9691 13.3784 17.6473 13.7671C17.7897 13.7995 17.917 13.8793 18.0082 13.9934C18.0994 14.1075 18.1492 14.2492 18.1494 14.3952Z" fill="#111111"/>
</svg>
