
<svg width="16" height="16" viewBox="0 0 16 16" fill="none" xmlns="http://www.w3.org/2000/svg">
<path d="M11.672 4.46376L6.4 9.73576L3.528 6.87176L2.4 7.99976L6.4 11.9998L12.8 5.59976L11.672 4.46376ZM8 -0.000244141C3.584 -0.000244141 0 3.58376 0 7.99976C0 12.4158 3.584 15.9998 8 15.9998C12.416 15.9998 16 12.4158 16 7.99976C16 3.58376 12.416 -0.000244141 8 -0.000244141ZM8 14.3998C4.464 14.3998 1.6 11.5358 1.6 7.99976C1.6 4.46376 4.464 1.59976 8 1.59976C11.536 1.59976 14.4 4.46376 14.4 7.99976C14.4 11.5358 11.536 14.3998 8 14.3998Z" fill="#52C41A"/>
</svg>
