<svg width="16" height="16" viewBox="0 0 16 16" fill="none" xmlns="http://www.w3.org/2000/svg">
<path fill-rule="evenodd" clip-rule="evenodd" d="M16 8C16 12.4183 12.4183 16 8 16C3.58172 16 0 12.4183 0 8C0 3.58172 3.58172 0 8 0C12.4183 0 16 3.58172 16 8ZM8.00927 2.93335C6.43666 2.93335 5.41807 3.5806 4.61838 4.73491C4.47331 4.9443 4.51803 5.2314 4.72039 5.38554L5.57031 6.0329C5.77468 6.18856 6.06547 6.15217 6.22547 5.95081C6.71899 5.32972 7.08508 4.97213 7.85597 4.97213C8.46209 4.97213 9.2118 5.36398 9.2118 5.95441C9.2118 6.40075 8.845 6.62998 8.24652 6.96703L8.19604 6.99542C7.50493 7.38393 6.62505 7.87855 6.62505 9.07296V9.26668C6.62505 9.52902 6.83675 9.74168 7.0979 9.74168H8.52574C8.7869 9.74168 8.9986 9.52902 8.9986 9.26668V9.15243C8.9986 8.83172 9.35137 8.62721 9.79018 8.37284C10.512 7.95438 11.4667 7.40098 11.4667 5.97335C11.4667 4.24467 9.68161 2.93335 8.00927 2.93335ZM7.81192 10.3247C7.05937 10.3247 6.44712 10.9398 6.44712 11.6957C6.44712 12.4517 7.05937 13.0667 7.81192 13.0667C8.56446 13.0667 9.17671 12.4517 9.17671 11.6957C9.17671 10.9397 8.56446 10.3247 7.81192 10.3247Z" fill="#BDBDBD"/>
</svg>
