<svg width="22" height="18" viewBox="0 0 22 18" fill="none" xmlns="http://www.w3.org/2000/svg">
<path fill-rule="evenodd" clip-rule="evenodd" d="M22 2.12884V3.65576C22 3.9077 21.7937 4.11384 21.5417 4.11384H6.11111V4.41922C6.11111 4.92693 5.70243 5.33538 5.19444 5.33538H4.58333C4.07535 5.33538 3.66667 4.92693 3.66667 4.41922V4.11384H0.458333C0.20625 4.11384 0 3.9077 0 3.65576V2.12884C0 1.87689 0.20625 1.67076 0.458333 1.67076H3.66667V1.36537C3.66667 0.857671 4.07535 0.449219 4.58333 0.449219H5.19444C5.70243 0.449219 6.11111 0.857671 6.11111 1.36537V1.67076H21.5417C21.7937 1.67076 22 1.87689 22 2.12884ZM21.5417 7.77846H18.3333V7.47307C18.3333 6.96537 17.9247 6.55692 17.4167 6.55692H16.8056C16.2976 6.55692 15.8889 6.96537 15.8889 7.47307V7.77846H0.458333C0.20625 7.77846 0 7.98459 0 8.23654V9.76346C0 10.0154 0.20625 10.2215 0.458333 10.2215H15.8889V10.5269C15.8889 11.0346 16.2976 11.4431 16.8056 11.4431H17.4167C17.9247 11.4431 18.3333 11.0346 18.3333 10.5269V10.2215H21.5417C21.7937 10.2215 22 10.0154 22 9.76346V8.23654C22 7.98459 21.7937 7.77846 21.5417 7.77846ZM11 13.8862H21.5417C21.7937 13.8862 22 14.0923 22 14.3442V15.8712C22 16.1231 21.7937 16.3292 21.5417 16.3292H11V16.6346C11 17.1423 10.5913 17.5508 10.0833 17.5508H9.47222C8.96424 17.5508 8.55556 17.1423 8.55556 16.6346V16.3292H0.458333C0.20625 16.3292 0 16.1231 0 15.8712V14.3442C0 14.0923 0.20625 13.8862 0.458333 13.8862H8.55556V13.5808C8.55556 13.0731 8.96424 12.6646 9.47222 12.6646H10.0833C10.5913 12.6646 11 13.0731 11 13.5808V13.8862Z" fill="#1890FF"/>
</svg>
