<svg width="15%" height="15%" viewBox="0 0 512 512" xmlns="http://www.w3.org/2000/svg" fill-rule="evenodd" clip-rule="evenodd" stroke-linejoin="round" stroke-miterlimit="1.414" style=""><path d="M510.35 256L415 351.42h-.17C374 310.76 318 285.5 256 285.5c-62 0-118.09 25.26-158.93 65.92h-.17L1.65 256 256 1.65 510.35 256z" fill="#001358" fill-opacity="0" stroke="#001358" stroke-width="5" transform="matrix(.78361 0 0 .80235 55.395 50.594)" class="JVlbXHZN_0"></path><path d="M386.86 379.54L256.09 510.31 125.15 379.54A183.26 183.26 0 0 1 256 325.29c8.748-.014 17.486.588 26.15 1.8a183.036 183.036 0 0 1 104.71 52.45z" fill="rgb(24, 144, 255)" fill-opacity="0" stroke="rgb(24, 144, 255)" stroke-width="5" transform="matrix(.78361 0 0 .80235 55.395 50.594)" class="JVlbXHZN_1"></path><style>.JVlbXHZN_0{stroke-dasharray:1343 1345;stroke-dashoffset:1344;animation:JVlbXHZN_draw_0 2200ms ease-in-out 0ms infinite,JVlbXHZN_fade 2200ms linear 0ms infinite;}.JVlbXHZN_1{stroke-dasharray:661 663;stroke-dashoffset:662;animation:JVlbXHZN_draw_1 2200ms ease-in-out 0ms infinite,JVlbXHZN_fade 2200ms linear 0ms infinite;}@keyframes JVlbXHZN_draw{100%{stroke-dashoffset:0;}}@keyframes JVlbXHZN_fade{0%{stroke-opacity:1;}77.27272727272728%{stroke-opacity:1;}100%{stroke-opacity:0;}}@keyframes JVlbXHZN_draw_0{13.636363636363635%{stroke-dashoffset: 1344;}45%{fill-opacity:0;}60%{fill-opacity:0;}72.72727272727273%{ stroke-dashoffset: 0;}80%{fill-opacity:1;}100%{ stroke-dashoffset: 0;}}@keyframes JVlbXHZN_draw_1{13.636363636363635%{stroke-dashoffset: 662}45%{fill-opacity:0;}60%{fill-opacity:0;}72.72727272727273%{ stroke-dashoffset: 0;}80%{fill-opacity:1;}100%{ stroke-dashoffset: 0;}}</style></svg>