<svg id="Layer_1" data-name="Layer 1" xmlns="http://www.w3.org/2000/svg" viewBox="0 0 50 50"><title>medium</title><g id="Page-2"><g id="Token-"><path id="telegram-1" d="M49.43,4.39a1.65,1.65,0,0,0-1.66-.28C39,7.29,12.13,17.23,1.13,21.25a1.68,1.68,0,0,0,.1,3.21c4.93,1.45,11.41,3.47,11.41,3.47s3,9,4.61,13.59A1.79,1.79,0,0,0,18.5,42.7a1.85,1.85,0,0,0,1.7-.41c2.51-2.36,6.44-6,6.44-6s7.43,5.39,11.66,8.36a2.52,2.52,0,0,0,2.31.28,2.34,2.34,0,0,0,1.5-1.71C43.93,34.8,48.32,13.57,50,6A1.6,1.6,0,0,0,49.43,4.39Zm-8.57,7.72L19.64,31l-.78,7.22L15.36,26.8,40.14,11.2a.6.6,0,0,1,.79.14A.56.56,0,0,1,40.86,12.11Z" fill="#fff"/></g></g></svg>