<svg width="13" height="9" viewBox="0 0 13 9" fill="none" xmlns="http://www.w3.org/2000/svg">
<path fill-rule="evenodd" clip-rule="evenodd" d="M6.5 0.300012C3.84707 0.294763 1.46357 1.90333 0.5 4.34929C1.46726 6.79254 3.84827 8.4 6.5 8.4C9.15173 8.4 11.5327 6.79254 12.5 4.34929C11.5364 1.90333 9.15293 0.294763 6.5 0.300012ZM6.5 7.04782C4.99392 7.04782 3.773 5.83965 3.773 4.34929C3.773 2.85894 4.99392 1.65076 6.5 1.65076C8.00608 1.65076 9.227 2.85894 9.227 4.34929C9.23429 5.06718 8.94933 5.75776 8.43633 6.2654C7.92332 6.77305 7.22546 7.05504 6.5 7.04782ZM4.98426 3.7306C5.23856 3.12464 5.83695 2.73016 6.5 2.73136C6.9361 2.72322 7.35677 2.89106 7.66519 3.19627C7.97362 3.50147 8.14323 3.91775 8.135 4.34929C8.13621 5.00542 7.73757 5.59756 7.12522 5.84921C6.51287 6.10085 5.80761 5.96236 5.33876 5.49841C4.86991 5.03445 4.72996 4.33656 4.98426 3.7306Z"/>
</svg>
