<?xml version="1.0" standalone="no"?>
<!DOCTYPE svg PUBLIC "-//W3C//DTD SVG 20010904//EN"
 "http://www.w3.org/TR/2001/REC-SVG-20010904/DTD/svg10.dtd">
<svg version="1.0" xmlns="http://www.w3.org/2000/svg"
 width="454.000000pt" height="382.000000pt" viewBox="0 0 454.000000 382.000000"
 preserveAspectRatio="xMidYMid meet">
<metadata>
Created by potrace 1.15, written by Peter Selinger 2001-2017
</metadata>
<g transform="translate(0.000000,382.000000) scale(0.100000,-0.100000)"
fill="#d0021b" stroke="none">
<path d="M1946 3759 c-491 -40 -944 -274 -1265 -653 -197 -233 -344 -536 -401
-832 -162 -841 229 -1653 984 -2040 517 -266 1175 -266 1692 0 515 264 877
740 984 1292 110 571 -37 1151 -401 1580 -325 383 -767 610 -1274 653 -133 12
-175 12 -319 0z m-347 -934 c16 -8 137 -126 270 -262 l242 -248 241 248 c133
136 254 255 270 263 17 9 41 13 57 9 35 -8 357 -330 366 -366 4 -16 1 -39 -9
-57 -8 -16 -126 -138 -262 -271 l-248 -241 251 -245 c263 -257 288 -288 263
-337 -22 -43 -333 -347 -361 -353 -16 -4 -40 0 -57 9 -16 8 -138 127 -271 263
l-242 248 -247 -252 c-136 -139 -257 -257 -270 -263 -46 -22 -74 -4 -239 163
-88 89 -166 172 -173 185 -25 49 -1 80 263 337 l251 245 -251 245 c-270 263
-288 287 -259 342 17 32 323 338 346 346 26 9 40 8 69 -8z"/>
</g>
</svg>
