<svg width="24" height="20" viewBox="0 0 24 20" fill="none" xmlns="http://www.w3.org/2000/svg">
<path d="M2.8466 3.91915C2.8719 3.62553 2.75804 3.33191 2.54296 3.12766L0.303637 0.408511V0H7.26199L12.6389 11.8979L17.3706 0H24V0.408511L22.0896 2.25957C21.9251 2.38723 21.8366 2.59149 21.8745 2.79574V16.4043C21.8366 16.6085 21.9251 16.8255 22.0896 16.9404L23.962 18.7915V19.2H14.5493V18.7915L16.485 16.8894C16.6747 16.6979 16.6747 16.6468 16.6747 16.3532V5.37447L11.2725 19.1745H10.5387L4.27623 5.37447V14.6298C4.22562 15.0128 4.35214 15.4085 4.61782 15.6894L7.13548 18.7787V19.1872H0V18.7787L2.51766 15.6894C2.78334 15.4085 2.90986 15.0128 2.8466 14.6298V3.91915Z" fill="#6C6C6C"/>
</svg>
