<svg width="24" height="20" viewBox="0 0 24 20" fill="none" xmlns="http://www.w3.org/2000/svg">
<path fill-rule="evenodd" clip-rule="evenodd" d="M20.996 6.10366C22.6573 6.11966 23.9935 7.4873 23.9855 9.16357H23.9999C24.0091 10.2964 23.3893 11.3392 22.3946 11.8646V12.2235C22.3946 16.4375 17.7086 19.8708 11.9459 19.8708C6.18324 19.8708 1.49717 16.4375 1.49717 12.2235V11.8113C0.326055 11.1173 -0.245004 9.72242 0.0993692 8.39688C0.443742 7.07135 1.61957 6.13843 2.97749 6.11336C3.60637 6.1102 4.21904 6.31455 4.72215 6.69528C6.71475 5.38881 9.03157 4.67459 11.4076 4.63432L13.133 0.473618C13.2718 0.130797 13.6349 -0.0615854 13.9933 0.017783L18.2517 1.06038C18.8434 0.121706 20.0204 -0.248757 21.0362 0.183919C22.052 0.616595 22.6098 1.72597 22.3559 2.80856C22.1019 3.89114 21.1105 4.63058 20.0102 4.55796C18.91 4.48535 18.0224 3.62191 17.9104 2.51518L14.2625 1.6423L13.0129 4.65372C15.2142 4.77876 17.3427 5.49351 19.1793 6.72437C19.6984 6.31712 20.3385 6.09843 20.996 6.10366ZM20.1405 1.52104C20.4945 1.52293 20.7983 1.77593 20.8673 2.12628C20.9362 2.47663 20.7513 2.82755 20.4248 2.96577C20.0984 3.10398 19.7206 2.99131 19.5212 2.69623C19.3217 2.40115 19.3555 2.00518 19.6022 1.74896C19.7441 1.6032 19.938 1.52107 20.1405 1.52104ZM15.6611 12.9897C15.0465 12.9994 14.4866 12.6344 14.2429 12.0651C13.9992 11.4957 14.1197 10.8342 14.5481 10.3895C14.9765 9.94473 15.6284 9.80437 16.1994 10.0339C16.7704 10.2635 17.148 10.8177 17.1558 11.4379C17.1599 11.8383 17.006 12.2238 16.7281 12.5096C16.4491 12.7964 16.069 12.9602 15.6707 12.9654L15.6611 12.9897ZM15.3775 16.5297C13.3328 18.0669 10.5302 18.0669 8.48542 16.5297C8.14535 16.2791 8.06822 15.7992 8.3124 15.4531C8.42643 15.2902 8.60034 15.18 8.79536 15.1472C8.99037 15.1144 9.19029 15.1617 9.35054 15.2786C10.8797 16.4207 12.9689 16.4207 14.498 15.2786C14.6509 15.1563 14.8458 15.1004 15.0396 15.1231C15.2334 15.1459 15.4103 15.2454 15.5313 15.3998L15.565 15.4483C15.681 15.6181 15.7274 15.8266 15.6948 16.0302C15.6588 16.2325 15.5447 16.4121 15.3775 16.5297ZM8.23844 9.97349C7.41551 9.96374 6.73957 10.627 6.72634 11.4573C6.7236 12.2934 7.38766 12.9764 8.21627 12.9897C9.03926 12.9922 9.70947 12.3231 9.71557 11.4927C9.72168 10.6624 9.06138 9.98325 8.23844 9.97349Z" fill="#6C6C6C"/>
</svg>
